<svg width="17" height="18" viewBox="0 0 17 18" fill="none" xmlns="http://www.w3.org/2000/svg">
<path id="phone" d="M10.4285 13.5201C10.8905 13.0581 11.9285 10.9721 12.2085 11.1201C13.0085 11.5641 16.5175 13.3201 16.5175 13.3201C16.5462 13.8479 16.4685 14.3761 16.2889 14.8732C16.1094 15.3704 15.8318 15.8264 15.4725 16.2141C13.2505 18.4361 8.22048 17.0081 4.23748 13.0241C0.254483 9.04009 -1.17452 4.01109 1.04748 1.78909C1.43519 1.42982 1.8912 1.15217 2.38836 0.972654C2.88552 0.793133 3.41372 0.715407 3.94152 0.744092C3.94152 0.744092 5.70354 4.24909 6.14654 5.05309C6.29854 5.32909 4.21252 6.37109 3.74652 6.83309C5.0239 9.83943 7.41737 12.2333 10.4235 13.5111L10.4285 13.5201Z" fill="#5A5A5A"/>
</svg>
