<svg width="19" height="20" viewBox="0 0 19 20" fill="none" xmlns="http://www.w3.org/2000/svg">
<g id="telegram-top">
<path id="telegram-top_2" fill-rule="evenodd" clip-rule="evenodd" d="M9.50103 5.30393e-08C7.62202 -0.000203613 5.78505 0.58614 4.22264 1.68488C2.66022 2.78361 1.44249 4.34539 0.723338 6.17269C0.00418546 7.99999 -0.184033 10.0107 0.182495 11.9506C0.549023 13.8906 1.4538 15.6725 2.78246 17.0711C4.11112 18.4697 5.80392 19.4221 7.64683 19.8079C9.48974 20.1937 11.4001 19.9956 13.136 19.2386C14.8719 18.4816 16.3555 17.1997 17.3993 15.5551C18.4431 13.9104 19.0002 11.9769 19 9.99897C19 7.34708 17.9992 4.8038 16.2178 2.92863C14.4364 1.05346 12.0203 5.30393e-08 9.50103 5.30393e-08ZM14.2368 6.55236C14.1029 7.0286 14.0009 7.51412 13.9315 8.00535C13.7829 8.89507 13.552 9.94439 13.4004 10.829C13.3221 11.3191 13.2461 11.8045 13.1724 12.285L12.7078 14.3899C12.6295 14.7101 12.4808 15.5226 12.4025 15.7605C12.2534 15.9002 12.0654 15.9855 11.8665 16.0035C11.6089 15.9781 11.3662 15.8653 11.1748 15.6822L7.7254 12.9317C7.64812 12.8545 7.26369 12.6063 7.18934 12.4549C7.45164 12.1884 7.73288 11.9433 8.03063 11.7218L9.41493 10.347C9.48927 10.2688 9.56356 10.1833 9.64182 10.1833L12.0191 7.84471C12.1557 7.77988 12.2645 7.66389 12.3243 7.51931C12.3243 7.28143 12.0934 7.44104 11.9447 7.51931L8.49242 9.77963C8.33981 9.94439 8.18712 10.0257 8.10885 10.1081C7.33895 10.59 6.49764 11.1533 5.806 11.6435L5.65338 11.7218L3.2009 10.8331C2.97003 10.7548 2.58757 10.5901 2.58757 10.2688C2.58757 9.94748 3.12651 9.77963 3.43174 9.6262C4.88642 8.97642 6.26876 8.32561 7.7254 7.76233C7.80367 7.68407 7.95237 7.68407 8.03063 7.60169L11.7138 6.14869C11.9447 6.07043 12.1716 5.98805 12.4807 5.90567C12.9425 5.65965 13.4292 5.46931 13.9315 5.33827C14.4745 5.33519 14.2368 6.14561 14.2368 6.54927V6.55236Z" fill="#039BE6"/>
</g>
</svg>
