<svg width="25" height="23" viewBox="0 0 25 23" fill="none" xmlns="http://www.w3.org/2000/svg">
<g clip-path="url(#clip0_1471_3879)">
<path d="M1.72804 12.2888L5.99203 9.74414L9.35603 14.7317L7.08003 16.0611C7.08003 16.0611 9.35103 18.5193 9.91003 19.2776C10.469 20.0359 11.178 21.9994 10.454 22.2651C10.1284 22.4124 9.77593 22.4886 9.41953 22.4886C9.06314 22.4886 8.71071 22.4124 8.38503 22.2651C7.49308 21.3515 6.69155 20.3509 5.99203 19.2776L5.44802 17.2795C5.44802 17.2795 1.84802 18.332 0.985024 17.1686C0.122024 16.0051 0.463035 13.0441 1.72804 12.2888Z" stroke="#FF0000" stroke-miterlimit="10"/>
<path d="M5.99207 9.74115L11.9801 2.42871L18.5091 12.8426L9.35707 14.7257L5.99207 9.74115Z" stroke="#FF0000" stroke-miterlimit="10"/>
<path d="M7.83606 16.9212C7.83606 16.9212 9.72506 17.1248 9.81506 16.565C9.775 15.93 9.61757 15.3084 9.35106 14.7328" stroke="#FF0000" stroke-miterlimit="10"/>
<path d="M11.991 2.12832C11.9496 2.00616 11.9388 1.87535 11.9598 1.74786C11.9807 1.62037 12.0327 1.50025 12.1111 1.39849C12.1111 1.39849 13.5201 0.3684 14.1421 1.39849C14.7641 2.42859 19.5211 10.254 20.0591 11.1915C20.5971 12.129 20.4901 12.6542 20.0591 13.0776C19.6281 13.5011 18.5081 12.8425 18.5081 12.8425C18.5081 12.8425 12.28 2.83473 11.991 2.12832Z" stroke="#FF0000" stroke-miterlimit="10"/>
<path d="M18.508 8.80971C18.508 8.80971 19.499 6.03904 18.863 5.1087C18.227 4.17836 16.025 4.51426 16.025 4.51426" stroke="#FF0000" stroke-miterlimit="10"/>
<path d="M18.983 0V2.97627" stroke="#FF0000" stroke-miterlimit="10"/>
<path d="M20.5961 6.64062L24.0621 7.04777" stroke="#FF0000" stroke-miterlimit="10"/>
<path d="M20.5961 3.64912L24.1221 2.12842" stroke="#FF0000" stroke-miterlimit="10"/>
</g>
<defs>
<clipPath id="clip0_1471_3879">
<rect width="24.317" height="23" fill="white"/>
</clipPath>
</defs>
</svg>
