<svg width="25" height="24" viewBox="0 0 25 24" fill="none" xmlns="http://www.w3.org/2000/svg">
<g clip-path="url(#clip0_1471_2567)">
<path d="M23.9371 11.9939H22.2776L23.0919 11.6922L22.1364 9.53284L20.563 10.116L21.3947 11.9939H21.2409V12.3692L18.6637 9.69212H6.2725L3.6962 12.3692V11.9939H3.13337L3.96409 10.1151L2.39066 9.53284L1.43518 11.6922L2.24946 11.9939H1V13.5258H2.5831L1.57155 15.1241V16.2046H1V23.2392H5.19324V21.6693H19.7439V23.2401H23.9371V16.2037H23.3656V15.1241L22.355 13.5258H23.9371V11.9939ZM7.16801 10.7709H17.7701L19.5176 13.1046H5.41953L7.16801 10.7709ZM3.1498 17.7444L2.94769 15.9002L8.08577 17.0683V17.7444H3.1498ZM18.6434 20.4197H6.29378L5.77445 18.8985H19.1617L18.6434 20.4197ZM21.7883 17.7444H16.8533V17.0683L21.9914 15.9002L21.7883 17.7444Z" stroke="#1E0E00" stroke-width="0.567" stroke-miterlimit="10"/>
<path d="M13.2402 6.65491H11.5439V8.98414H13.2402V6.65491Z" stroke="#1E0E00" stroke-width="0.567" stroke-miterlimit="10"/>
<path d="M7.63701 6.55669L7.20575 8.85315L8.87845 9.1162L9.30971 6.81974L7.63701 6.55669Z" stroke="#1E0E00" stroke-width="0.567" stroke-miterlimit="10"/>
<path d="M4.06728 5.74816L2.72516 8.77612L4.29848 9.3601L5.64061 6.33213L4.06728 5.74816Z" stroke="#1E0E00" stroke-width="0.5672" stroke-miterlimit="10"/>
<path d="M20.4623 5.74917L18.889 6.33191L20.228 9.35886L21.8012 8.77613L20.4623 5.74917Z" stroke="#1E0E00" stroke-width="0.567" stroke-miterlimit="10"/>
<path d="M5.9737 5.57704L7.13421 2.98585H8.36336L8.31209 2.99381L7.87982 5.28944L9.55286 5.55492L10.0509 2.98852H11.5479V5.45756H13.2442V2.98852H14.4859L14.982 5.55492L16.6551 5.28944L16.2228 2.99381L16.1986 2.98585H17.3088L18.5583 5.57615L20.1317 4.99385L19.243 2.98674H19.8097V2.25666H19.5341V1.5H5.25421V2.25666H4.97859V2.98585H5.28804L4.40027 4.99296L5.9737 5.57704Z" stroke="#1E0E00" stroke-width="0.567" stroke-miterlimit="10"/>
<path d="M16.8895 6.55641L15.2169 6.82031L15.6496 9.11655L17.3221 8.85265L16.8895 6.55641Z" stroke="#1E0E00" stroke-width="0.567" stroke-miterlimit="10"/>
</g>
<defs>
<clipPath id="clip0_1471_2567">
<rect width="24.285" height="23" fill="white" transform="translate(0 0.5)"/>
</clipPath>
</defs>
</svg>
