<svg xmlns="http://www.w3.org/2000/svg" xmlns:xlink="http://www.w3.org/1999/xlink" width="48.83" height="48.83" viewBox="0 0 48.83 48.83">
  <defs>
    <filter id="Rectangle_38" x="0" y="0" width="48.83" height="48.83" filterUnits="userSpaceOnUse">
      <feOffset dy="1" input="SourceAlpha"/>
      <feGaussianBlur stdDeviation="1.5" result="blur"/>
      <feFlood flood-opacity="0.451"/>
      <feComposite operator="in" in2="blur"/>
      <feComposite in="SourceGraphic"/>
    </filter>
  </defs>
  <g id="Group_35" data-name="Group 35" transform="translate(-1181.044 -403.421)">
    <g transform="matrix(1, 0, 0, 1, 1181.04, 403.42)" filter="url(#Rectangle_38)">
      <rect id="Rectangle_38-2" data-name="Rectangle 38" width="39.83" height="39.83" rx="2" transform="translate(4.5 3.5)" fill="#fff"/>
    </g>
    <g id="Group_34" data-name="Group 34">
      <path id="Path_50" data-name="Path 50" d="M1200.969,437.9a4.547,4.547,0,0,1,8.98,0Z" fill="none" stroke="#000" stroke-linecap="round" stroke-miterlimit="10" stroke-width="1"/>
      <g id="Group_33" data-name="Group 33">
        <g id="Group_31" data-name="Group 31">
          <path id="Path_51" data-name="Path 51" d="M1193.651,428.3a3.89,3.89,0,0,0,7.779,0Z" fill="none" stroke="#000" stroke-linecap="round" stroke-linejoin="round" stroke-width="1"/>
          <path id="Path_52" data-name="Path 52" d="M1193.651,428.3l3.89-9.675,3.89,9.675Z" fill="none" stroke="#000" stroke-linecap="round" stroke-linejoin="round" stroke-width="1"/>
        </g>
        <g id="Group_32" data-name="Group 32">
          <path id="Path_53" data-name="Path 53" d="M1209.488,428.3a3.89,3.89,0,0,0,7.78,0Z" fill="none" stroke="#000" stroke-linecap="round" stroke-linejoin="round" stroke-width="1"/>
          <path id="Path_54" data-name="Path 54" d="M1209.488,428.3l3.89-9.675,3.89,9.675Z" fill="none" stroke="#000" stroke-linecap="round" stroke-linejoin="round" stroke-width="1"/>
        </g>
      </g>
      <line id="Line_5" data-name="Line 5" y1="18.308" transform="translate(1205.459 415.767)" fill="none" stroke="#000" stroke-miterlimit="10" stroke-width="1"/>
      <line id="Line_6" data-name="Line 6" x2="21.59" transform="translate(1194.664 417.873)" fill="none" stroke="#000" stroke-miterlimit="10" stroke-width="1"/>
    </g>
  </g>
</svg>
