<svg width="23" height="24" viewBox="0 0 23 24" fill="none" xmlns="http://www.w3.org/2000/svg">
<g clip-path="url(#clip0_1471_3690)">
<path d="M22.203 9.77002L13.609 1.5L9.04698 6.73748L8.68797 6.39197L7.16697 7.85964L7.50197 8.18204L6.98398 8.68155C6.38398 9.259 8.08397 11.5688 7.61397 13.2704C6.98997 15.5522 4.85298 15.711 1.96698 18.4876C0.409978 19.987 0.0169709 21.4855 0.728971 22.1708C1.44097 22.856 2.99698 22.4778 4.55498 20.9783C7.44097 18.2008 7.60496 16.1432 9.97596 15.5436C11.728 15.1009 14.093 16.6859 14.723 16.1672C13.102 14.5638 8.36497 9.81528 8.62297 9.30039L15.595 15.9738L17.117 14.509L16.742 14.15L22.203 9.77002ZM3.35997 19.7079C3.57336 19.806 3.74881 19.9668 3.86091 20.1672C3.97302 20.3676 4.01597 20.5971 3.98355 20.8225C3.95113 21.0479 3.84502 21.2576 3.68057 21.4211C3.51612 21.5846 3.30187 21.6935 3.06883 21.7321C2.83579 21.7707 2.59604 21.7369 2.38429 21.6356C2.17254 21.5343 1.99976 21.3708 1.89097 21.1687C1.78218 20.9667 1.74302 20.7365 1.77916 20.5116C1.81529 20.2867 1.92486 20.0787 2.09198 19.9177C2.23556 19.7336 2.44689 19.6093 2.68265 19.5703C2.9184 19.5313 3.16073 19.5805 3.35997 19.7079ZM9.58297 6.98963L13.669 2.32672L14.532 3.15823L11.247 7.25235L15.185 3.78768L15.753 4.33432L12.868 7.96262L16.554 5.18604L17.081 5.69324L14.574 8.6315L17.796 6.34192L18.239 6.76729L14.785 10.821L19.123 7.4968L19.565 7.9222L16.465 11.4687L20.235 8.69309L21.335 9.74597L16.535 13.6794L9.58297 6.98963Z" stroke="#1E0E00" stroke-width="0.567" stroke-miterlimit="10"/>
</g>
<defs>
<clipPath id="clip0_1471_3690">
<rect width="22.623" height="23" fill="white" transform="translate(0 0.5)"/>
</clipPath>
</defs>
</svg>
