<svg width="25" height="23" viewBox="0 0 25 23" fill="none" xmlns="http://www.w3.org/2000/svg">
<g clip-path="url(#clip0_1471_2589)">
<path d="M20.3892 12.2759L20.3744 13.7074C20.3666 13.7931 20.3247 13.8726 20.2574 13.9293C20.1901 13.9859 20.1027 14.0153 20.0134 14.0113H19.8349C19.7909 14.0143 19.7467 14.0088 19.7049 13.9953C19.6631 13.9817 19.6245 13.9603 19.5913 13.9323C19.5581 13.9044 19.531 13.8703 19.5115 13.8322C19.492 13.7941 19.4806 13.7526 19.4778 13.7102L19.4917 12.2807H18.671L18.6503 14.3314C18.6425 14.4174 18.6005 14.4972 18.533 14.554C18.4656 14.6108 18.3779 14.6403 18.2884 14.6363H18.1098C18.066 14.6394 18.022 14.6341 17.9803 14.6207C17.9386 14.6073 17.9001 14.5861 17.867 14.5583C17.8339 14.5304 17.8068 14.4966 17.7874 14.4586C17.7679 14.4206 17.7565 14.3794 17.7538 14.3371L17.7735 12.2864L17.7972 9.83386H1.93616V15.1711H21.7V9.83862H20.9968L20.9731 12.274L20.3892 12.2759ZM13.7168 12.9209H9.91548V12.0869H13.7168V12.9209Z" stroke="#1E0E00" stroke-width="0.567" stroke-miterlimit="10"/>
<path d="M13.6576 4.8385H9.91746V4.00546H13.6655L13.6872 1.75623H1.93616V7.08869H13.6349L13.6576 4.8385Z" stroke="#1E0E00" stroke-width="0.567" stroke-miterlimit="10"/>
<path d="M0 0V17.3253H1.1974V17.8003H1.46765V22.1496H4.21356V17.8003H4.48382V17.3253H19.1474V17.8003H19.4197V22.1496H22.1646V17.8003H22.4348V17.3253H23.6322V0H0ZM22.3362 7.69382H21.0175L21.0027 9.22116H22.3362V15.7752H1.30096V9.22116H17.8041L17.8198 7.69382H16.0218L16.0159 8.26942C16.0083 8.35543 15.9663 8.43523 15.8988 8.49196C15.8312 8.54868 15.7434 8.57788 15.6539 8.57338H15.4754C15.4315 8.57622 15.3875 8.5707 15.3459 8.55715C15.3042 8.5436 15.2658 8.52227 15.2327 8.49439C15.1997 8.46652 15.1726 8.43263 15.1532 8.39468C15.1337 8.35673 15.1222 8.31545 15.1193 8.27322L15.1252 7.69287H14.5265L14.5137 8.61043C14.5064 8.69635 14.4646 8.77613 14.3972 8.83288C14.3298 8.88962 14.2421 8.91885 14.1527 8.91436H13.9722C13.9284 8.9172 13.8845 8.91169 13.8429 8.89813C13.8013 8.88456 13.7629 8.8632 13.7299 8.83531C13.6969 8.80742 13.67 8.77354 13.6506 8.7356C13.6313 8.69765 13.6199 8.65642 13.6171 8.61423L13.63 7.69191H1.30096V1.13792H22.3362V7.69382Z" stroke="#1E0E00" stroke-width="0.567" stroke-miterlimit="10"/>
</g>
<defs>
<clipPath id="clip0_1471_2589">
<rect width="24.531" height="23" fill="white"/>
</clipPath>
</defs>
</svg>
