<svg width="25" height="23" viewBox="0 0 25 23" fill="none" xmlns="http://www.w3.org/2000/svg">
<g clip-path="url(#clip0_1471_2562)">
<path d="M21.1481 16.6935L19.6685 6.60227H15.2218L13.7393 16.6949H11.2279V10.0953H0V22H24V16.6914L21.1481 16.6935ZM8.12027 15.838H7.93533C7.84309 15.8426 7.75205 15.8212 7.68203 15.7786C7.612 15.736 7.56864 15.6757 7.5614 15.6106L7.54725 14.5414H6.92977L6.93685 15.0546C6.93086 15.1197 6.88879 15.1805 6.81976 15.2238C6.75073 15.2672 6.66028 15.2896 6.56797 15.2863H6.38303C6.29082 15.2903 6.20007 15.2686 6.13019 15.226C6.06032 15.1834 6.01684 15.1231 6.00909 15.0582L6.00203 14.5449L4.14553 14.5542L4.19203 16.3285L4.21223 17.8854C4.20598 17.9502 4.16397 18.0107 4.09518 18.0539C4.0264 18.0971 3.93634 18.1195 3.84437 18.1164H3.65842C3.56635 18.1209 3.47545 18.0996 3.40545 18.0572C3.33545 18.0147 3.29198 17.9546 3.28449 17.8897L3.26429 16.3328L2.41638 16.3378L2.43053 17.4249C2.42429 17.4898 2.38208 17.5503 2.31304 17.5934C2.24401 17.6365 2.1537 17.6587 2.06166 17.6551H1.87672C1.78461 17.6591 1.69396 17.6374 1.62425 17.5948C1.55453 17.5521 1.51129 17.4919 1.5038 17.427L1.48966 16.3413H0.883283L0.776155 10.6199L8.41133 10.58L8.47095 14.5264L8.48611 15.5957C8.48442 15.6283 8.4736 15.6604 8.45428 15.6901C8.43496 15.7198 8.40751 15.7465 8.37352 15.7687C8.33953 15.7909 8.29966 15.8081 8.2562 15.8194C8.21274 15.8307 8.16654 15.8358 8.12027 15.8345V15.838ZM14.3669 19.1101H12.1435V17.5418H14.3669V19.1101ZM18.2436 19.1101H16.0202V17.5418H18.2436V19.1101ZM22.1193 19.1101H19.8959V17.5418H22.1193V19.1101ZM10.6438 3.03657C10.6295 2.77284 10.6908 2.50978 10.8241 2.26316C10.9573 2.01655 11.1597 1.79142 11.4192 1.60128C11.6787 1.41113 11.9899 1.25989 12.3342 1.15657C12.6785 1.05325 13.0488 1 13.423 1C13.7971 1 14.1674 1.05325 14.5117 1.15657C14.856 1.25989 15.1672 1.41113 15.4267 1.60128C15.6862 1.79142 15.8886 2.01655 16.0218 2.26316C16.1551 2.50978 16.2164 2.77284 16.2021 3.03657C16.202 3.2566 16.1487 3.475 16.0445 3.6824C16.0657 3.69737 16.0869 3.71021 16.1071 3.72447C17.1976 4.5136 17.3502 5.59072 16.8691 5.95C16.3881 6.30928 14.7246 5.85519 13.6352 5.06606C13.6028 5.04254 13.5745 5.01829 13.5432 4.99477C13.5028 4.99477 13.4634 4.99906 13.4219 4.99906C13.0564 4.99887 12.6945 4.94783 12.357 4.84888C12.0194 4.74993 11.7129 4.60502 11.4548 4.4224C11.1968 4.23979 10.9923 4.02308 10.8532 3.78467C10.714 3.54625 10.6428 3.29083 10.6438 3.033V3.03657Z" stroke="#1E0E00" stroke-width="0.567" stroke-miterlimit="10"/>
</g>
<defs>
<clipPath id="clip0_1471_2562">
<rect width="24.315" height="23" fill="white"/>
</clipPath>
</defs>
</svg>
