<svg width="34" height="30" viewBox="0 0 34 30" fill="none" xmlns="http://www.w3.org/2000/svg">
<path d="M29.0757 21.8343L27.1115 8.43744H21.2081L19.2399 21.8362H15.9059V13.0747H1V28.8791H32.8618V21.8315L29.0757 21.8343ZM11.7803 20.6986H11.5347C11.4123 20.7046 11.2914 20.6763 11.1985 20.6198C11.1055 20.5632 11.0479 20.4831 11.0383 20.3967L11.0195 18.9772H10.1998L10.2092 19.6586C10.2012 19.7449 10.1454 19.8257 10.0537 19.8832C9.96211 19.9408 9.84203 19.9706 9.71948 19.9662H9.47396C9.35153 19.9714 9.23106 19.9427 9.1383 19.8861C9.04553 19.8295 8.98781 19.7495 8.97753 19.6633L8.96815 18.9819L6.50351 18.9942L6.56523 21.3498L6.59205 23.4166C6.58376 23.5027 6.52798 23.583 6.43667 23.6403C6.34535 23.6976 6.22579 23.7274 6.10369 23.7233H5.85683C5.73459 23.7293 5.61392 23.701 5.52099 23.6447C5.42806 23.5884 5.37035 23.5085 5.36041 23.4223L5.33359 21.3554L4.20793 21.3621L4.22672 22.8053C4.21843 22.8914 4.16239 22.9717 4.07074 23.029C3.97909 23.0862 3.85921 23.1156 3.737 23.1109H3.49148C3.3692 23.1162 3.24886 23.0874 3.15631 23.0308C3.06376 22.9742 3.00636 22.8942 2.9964 22.8081L2.97763 21.3668H2.17262L2.0304 13.7712L12.1667 13.7182L12.2458 18.9573L12.2659 20.3769C12.2637 20.4202 12.2493 20.4628 12.2237 20.5022C12.198 20.5417 12.1616 20.5771 12.1165 20.6066C12.0714 20.636 12.0184 20.6589 11.9607 20.6739C11.903 20.6889 11.8417 20.6957 11.7803 20.6939V20.6986ZM20.0731 25.0425H17.1214V22.9605H20.0731V25.0425ZM25.2197 25.0425H22.2681V22.9605H25.2197V25.0425ZM30.365 25.0425H27.4133V22.9605H30.365V25.0425ZM15.1304 3.7037C15.1115 3.35358 15.1929 3.00435 15.3698 2.67695C15.5467 2.34954 15.8154 2.05067 16.1599 1.79824C16.5043 1.54581 16.9175 1.34502 17.3746 1.20786C17.8316 1.07069 18.3233 1 18.82 1C19.3167 1 19.8083 1.07069 20.2654 1.20786C20.7225 1.34502 21.1356 1.54581 21.4801 1.79824C21.8246 2.05067 22.0933 2.34954 22.2702 2.67695C22.4471 3.00435 22.5285 3.35358 22.5096 3.7037C22.5094 3.99581 22.4386 4.28575 22.3003 4.56109C22.3284 4.58096 22.3566 4.59801 22.3834 4.61694C23.8311 5.66458 24.0337 7.09452 23.395 7.5715C22.7564 8.04847 20.548 7.44564 19.1017 6.398C19.0588 6.36677 19.0212 6.33459 18.9796 6.30336C18.926 6.30336 18.8736 6.30905 18.8186 6.30905C18.3334 6.3088 17.8529 6.24105 17.4048 6.10968C16.9567 5.97832 16.5497 5.78593 16.2072 5.5435C15.8646 5.30107 15.5932 5.01336 15.4084 4.69685C15.2236 4.38035 15.1292 4.04125 15.1304 3.69896V3.7037Z" stroke="#1E0E00" stroke-width="0.752735" stroke-miterlimit="10"/>
</svg>
