<svg width="23" height="23" viewBox="0 0 23 23" fill="none" xmlns="http://www.w3.org/2000/svg">
<g clip-path="url(#clip0_1471_2528)">
<path d="M21.867 7.366H19.33V7.75198L16.905 5H5.24602L2.82101 7.75299V7.366H0.28302V8.94199H1.77303L0.822021 10.586V11.696H0.28302V18.93H4.23003V17.316H17.921V18.931H21.867V13.969L13.767 13.904V13.509L12.618 13.5C12.5535 13.4992 12.4918 13.4731 12.4464 13.4272C12.4009 13.3814 12.3753 13.3196 12.375 13.255V13.134C12.3749 13.1021 12.3811 13.0706 12.3933 13.0411C12.4055 13.0117 12.4234 12.985 12.446 12.9626C12.4686 12.9401 12.4955 12.9224 12.525 12.9105C12.5546 12.8985 12.5862 12.8926 12.618 12.893L13.767 12.901V12.35L12.121 12.337C12.0565 12.3357 11.995 12.3093 11.9496 12.2633C11.9042 12.2174 11.8785 12.1556 11.878 12.091V11.97C11.8782 11.9382 11.8845 11.9068 11.8968 11.8775C11.9091 11.8482 11.9271 11.8215 11.9496 11.7992C11.9722 11.7768 11.9989 11.7591 12.0283 11.747C12.0577 11.735 12.0892 11.7289 12.121 11.729L13.767 11.743L17.543 11.773V10.55H17C16.9355 10.5492 16.8738 10.5231 16.8284 10.4772C16.7829 10.4314 16.7573 10.3695 16.757 10.305V10.184C16.757 10.1522 16.7633 10.1207 16.7756 10.0913C16.7878 10.0619 16.8057 10.0353 16.8283 10.0129C16.8509 9.99047 16.8777 9.97275 16.9072 9.96075C16.9367 9.94876 16.9682 9.94273 17 9.94299L17.543 9.948V9.54199L16.413 9.534C16.3483 9.53295 16.2865 9.50663 16.2409 9.46066C16.1953 9.4147 16.1695 9.35273 16.169 9.28799V9.16699C16.1692 9.13513 16.1756 9.10359 16.1879 9.07422C16.2003 9.04484 16.2183 9.01821 16.241 8.99582C16.2636 8.97343 16.2905 8.95574 16.32 8.94376C16.3495 8.93178 16.3812 8.92573 16.413 8.92599L17.543 8.935L20.386 8.95801L20.379 8.94501H21.868L21.867 7.366ZM2.30602 13.279L2.11603 11.379L6.95203 12.579V13.279H2.30602ZM17.374 14.466L16.885 16.03H5.26501L4.77702 14.466H17.374ZM16.063 8.508H4.44302L6.08803 6.108H16.063L17.708 8.508H16.063Z" stroke="#1E0E00" stroke-width="0.567" stroke-miterlimit="10"/>
</g>
<defs>
<clipPath id="clip0_1471_2528">
<rect width="22.151" height="23" fill="white"/>
</clipPath>
</defs>
</svg>
