<svg width="28" height="23" viewBox="0 0 28 23" fill="none" xmlns="http://www.w3.org/2000/svg">
<g clip-path="url(#clip0_1471_2297)">
<path d="M22.066 11.9575L24.331 12.9698L26.654 11.5383L20.929 6.65464V1.5491H17.816V4.00319L13.57 0.381348L0.487 11.5403L2.81299 12.9719L5.14099 11.932V20.5142H2.63499V22.7106H24.571V20.5121H22.066V11.9575ZM10.689 11.7898V10.9984H8.95299V18.9057C8.95299 18.9996 8.91657 19.0897 8.85172 19.1562C8.78686 19.2227 8.69885 19.2603 8.60699 19.2605H8.43399C8.34196 19.2605 8.2537 19.2231 8.18863 19.1566C8.12355 19.0901 8.08699 18.9998 8.08699 18.9057V16.5058H7.29399V18.1807C7.29399 18.2748 7.25743 18.3651 7.19235 18.4316C7.12728 18.4982 7.03902 18.5355 6.94699 18.5355H6.77399C6.68196 18.5355 6.5937 18.4982 6.52863 18.4316C6.46355 18.3651 6.42699 18.2748 6.42699 18.1807V16.5058H5.86499V9.84804L12.999 3.76085V12.6467C12.9987 12.7407 12.962 12.8306 12.897 12.897C12.832 12.9633 12.7438 13.0005 12.652 13.0005H12.479C12.3873 13.0003 12.2994 12.9629 12.2346 12.8966C12.1698 12.8303 12.1333 12.7405 12.133 12.6467V10.9984H11.555V11.7898C11.5551 11.8364 11.5463 11.8825 11.5289 11.9255C11.5116 11.9686 11.4862 12.0077 11.454 12.0407C11.4219 12.0736 11.3837 12.0998 11.3416 12.1176C11.2996 12.1355 11.2545 12.1447 11.209 12.1447H11.036C10.944 12.1447 10.8557 12.1073 10.7906 12.0407C10.7256 11.9742 10.689 11.8839 10.689 11.7898ZM16.235 20.6481H10.947V13.4995H16.235V20.6481Z" stroke="#1E0E00" stroke-width="0.567" stroke-miterlimit="10"/>
</g>
<defs>
<clipPath id="clip0_1471_2297">
<rect width="27.142" height="23" fill="white"/>
</clipPath>
</defs>
</svg>
