<svg width="105" height="17" viewBox="0 0 105 17" fill="none" xmlns="http://www.w3.org/2000/svg">
<path d="M94.0255 14.3029C94.0255 14.4369 94.2684 14.5849 94.4824 14.7159C94.7824 14.8969 95.1145 15.102 95.1145 15.452C95.1281 15.5589 95.1171 15.6675 95.0823 15.7696C95.0475 15.8716 94.9898 15.9644 94.9137 16.0407C94.8376 16.117 94.745 16.1749 94.6431 16.21C94.5411 16.245 94.4324 16.2563 94.3254 16.2429C94.2191 16.2518 94.1121 16.2393 94.0107 16.2062C93.9093 16.1731 93.8156 16.12 93.735 16.0501C93.6544 15.9802 93.5885 15.8949 93.5414 15.7993C93.4942 15.7036 93.4668 15.5994 93.4604 15.4929H93.9125C93.9125 15.5569 93.9834 15.7929 94.3254 15.7929C94.6144 15.7929 94.6604 15.6929 94.6604 15.4539C94.6604 15.3539 94.4215 15.2109 94.2455 15.1039C93.9305 14.9109 93.5725 14.692 93.5725 14.304C93.5725 13.841 93.8504 13.5959 94.3724 13.5959C95.0424 13.5959 95.1344 13.936 95.1344 14.304H94.6825C94.6825 14.072 94.6824 14.049 94.3724 14.049C94.0204 14.049 94.0205 14.167 94.0205 14.304M104.958 16.2429H99.4535V13.6679H103.053L104.958 16.2429ZM96.5144 14.8979H96.0945V14.072H96.5144C96.6169 14.0821 96.7121 14.1299 96.7812 14.2062C96.8504 14.2826 96.8888 14.3819 96.8888 14.4849C96.8888 14.5879 96.8504 14.6873 96.7812 14.7636C96.7121 14.8399 96.6169 14.8878 96.5144 14.8979ZM96.5874 13.64H95.6215V16.2399H96.0945V15.2609H96.1344L96.7985 16.2419H97.3285L96.6434 15.2289C96.8294 15.2144 97.0031 15.1304 97.13 14.9937C97.2569 14.8569 97.3278 14.6775 97.3285 14.491V14.3799C97.328 14.1836 97.2497 13.9954 97.1108 13.8566C96.972 13.7177 96.7838 13.6394 96.5874 13.6389M83.5094 8.46991V3.69995H85.9435C86.5299 3.76583 87.0715 4.04545 87.4648 4.48541C87.8581 4.92537 88.0756 5.49483 88.0756 6.08496C88.0756 6.67509 87.8581 7.24449 87.4648 7.68445C87.0715 8.12441 86.5299 8.40403 85.9435 8.46991H83.5094ZM42.3785 13.809H40.9294V3.64197H42.3785C43.0521 3.63252 43.7208 3.75701 44.3458 4.00824C44.9709 4.25947 45.5397 4.63242 46.0194 5.10541C46.4991 5.57839 46.8799 6.14197 47.1399 6.76343C47.3999 7.38488 47.5338 8.05182 47.5338 8.72546C47.5338 9.3991 47.3999 10.066 47.1399 10.6874C46.8799 11.3089 46.4991 11.8725 46.0194 12.3455C45.5397 12.8184 44.9709 13.1914 44.3458 13.4426C43.7208 13.6939 43.0521 13.8184 42.3785 13.809ZM86.6785 10.3909C87.7534 10.3073 88.7573 9.82202 89.4907 9.03174C90.2241 8.24146 90.6332 7.20406 90.6365 6.12592V5.48596C90.6333 4.35251 90.1817 3.26635 89.3804 2.46478C88.579 1.66322 87.4929 1.21138 86.3595 1.20795H80.7784V13.6669H74.1704V10.0129H79.1505V7.43695H74.1704V3.78296H79.4895V1.20795H69.0775L61.6375 12.6679V1.20795H56.8994L53.5394 8.09393L50.1785 1.20795H47.2234L48.9025 4.34094C48.234 3.37601 47.342 2.58711 46.3026 2.04156C45.2632 1.49602 44.1073 1.21001 42.9335 1.20795H38.1984V16.2419H42.9335C44.8604 16.2364 46.7068 15.4685 48.0694 14.1059C49.432 12.7433 50.1999 10.8969 50.2054 8.96991V8.47992C50.2068 7.57464 50.0371 6.67729 49.7054 5.83496L52.2905 10.658V16.2419H54.7905V10.6609L59.1344 2.55591V16.2449H62.6565L71.4414 2.71295V16.2449H83.5074V10.5759H83.7415L87.5754 16.2449H92.7025V13.6699H88.8955L86.6785 10.3909ZM98.3275 15.791H99.0874V16.2399H97.7415V13.64H98.3324L98.3275 15.791ZM14.5275 8.46796H12.0934V3.69794H14.5414C15.1279 3.76381 15.6695 4.04344 16.0628 4.4834C16.4561 4.92336 16.6735 5.49282 16.6735 6.08295C16.6735 6.67308 16.4561 7.24254 16.0628 7.6825C15.6695 8.12245 15.1279 8.40208 14.5414 8.46796M5.10144 7.90991H2.96844V3.69794H5.10144C5.65999 3.69794 6.19569 3.91981 6.59064 4.31476C6.98559 4.70971 7.20746 5.24541 7.20746 5.80396C7.20746 6.3625 6.98559 6.89814 6.59064 7.29309C6.19569 7.68804 5.65999 7.90991 5.10144 7.90991ZM14.9595 1.20996H9.37848V3.55792C9.02088 2.85329 8.47558 2.26113 7.80273 1.8468C7.12989 1.43247 6.35561 1.21211 5.56543 1.20996H0.241455V16.244H2.96948V10.4059H5.56946C6.35951 10.4038 7.13364 10.1835 7.80646 9.76935C8.47927 9.35521 9.02462 8.76334 9.38245 8.05896V16.244H12.1115V10.575H12.3455L16.1794 16.244H19.2405L15.2825 10.3929C16.3574 10.3093 17.3614 9.82403 18.0948 9.03375C18.8282 8.24347 19.2372 7.20607 19.2405 6.12793V5.48792C19.2373 4.35447 18.7857 3.26836 17.9843 2.4668C17.1829 1.66523 16.0969 1.21339 14.9634 1.20996M33.3245 8.72693H35.8995C35.8609 10.2496 35.3755 11.7274 34.5038 12.9766C33.6322 14.2257 32.4125 15.191 30.9966 15.7526C29.5807 16.3142 28.031 16.4472 26.5401 16.1352C25.0492 15.8231 23.6829 15.0797 22.6111 13.9974C21.5393 12.9152 20.8092 11.5417 20.5117 10.0479C20.2141 8.554 20.3622 7.00565 20.9375 5.59528C21.5128 4.1849 22.49 2.97475 23.7475 2.11523C25.005 1.25572 26.4874 0.784743 28.0104 0.760925V3.33496C26.9955 3.35792 26.0094 3.67747 25.174 4.25421C24.3385 4.83096 23.6901 5.63967 23.3088 6.58057C22.9275 7.52146 22.8299 8.55339 23.0281 9.54907C23.2264 10.5448 23.7118 11.4606 24.4244 12.1837C25.137 12.9067 26.0457 13.4054 27.0384 13.6182C28.0311 13.8309 29.0643 13.7484 30.0107 13.3809C30.957 13.0133 31.7751 12.3767 32.364 11.5497C32.9528 10.7227 33.2867 9.74145 33.3245 8.72693ZM35.4465 3.36096V7.46094H33.6915V4.28491L32.9185 5.05792L28.9014 9.07495L27.6614 7.83392L31.8104 3.68494L32.5834 2.91193H29.1425V1.15094H35.4424L35.4465 3.36096ZM28.6895 0.699951V3.36096H31.4894L27.0195 7.82996L28.9005 9.71094L33.2374 5.37396V7.90991H35.8984V0.699951H28.6895Z" fill="#FF0000"/>
</svg>
