<svg width="29" height="28" viewBox="0 0 29 28" fill="none" xmlns="http://www.w3.org/2000/svg">
<path d="M11.3534 20.0486C10.6884 20.0486 10.0383 20.2529 9.48537 20.6355C8.93247 21.0182 8.50163 21.5621 8.2472 22.1985C7.99278 22.8349 7.92627 23.5351 8.0561 24.2106C8.18592 24.8861 8.50616 25.5066 8.97646 25.9936C9.44677 26.4805 10.046 26.812 10.6982 26.9463C11.3505 27.0805 12.0265 27.0113 12.6408 26.7476C13.2551 26.4838 13.78 26.0373 14.1493 25.4645C14.5186 24.8917 14.7156 24.2183 14.7154 23.5295C14.714 22.6065 14.3593 21.7217 13.7291 21.0692C13.0988 20.4166 12.2445 20.0496 11.3534 20.0486ZM11.3534 26.0473C10.8726 26.0473 10.4027 25.8996 10.0029 25.623C9.60316 25.3463 9.29154 24.9531 9.10755 24.493C8.92357 24.033 8.87539 23.5267 8.96919 23.0383C9.06298 22.5499 9.29453 22.1013 9.63449 21.7492C9.97445 21.3971 10.4076 21.1573 10.8792 21.0601C11.3507 20.963 11.8394 21.0128 12.2836 21.2034C12.7278 21.3939 13.1075 21.7167 13.3746 22.1307C13.6417 22.5448 13.7842 23.0315 13.7842 23.5295C13.7846 23.8605 13.7219 24.1883 13.5999 24.4942C13.478 24.8001 13.299 25.0782 13.0733 25.3124C12.8476 25.5467 12.5794 25.7326 12.2843 25.8596C11.9892 25.9866 11.6729 26.0521 11.3534 26.0524V26.0473ZM23.1612 20.0486C22.4962 20.0483 21.846 20.2524 21.2929 20.6349C20.7399 21.0174 20.3088 21.5613 20.0542 22.1976C19.7995 22.834 19.7329 23.5342 19.8626 24.2098C19.9923 24.8854 20.3124 25.506 20.7827 25.9931C21.2529 26.4802 21.8521 26.8118 22.5044 26.9462C23.1567 27.0805 23.8328 27.0114 24.4471 26.7477C25.0615 26.484 25.5865 26.0375 25.9558 25.4646C26.3251 24.8918 26.5223 24.2183 26.522 23.5295C26.5207 22.6067 26.1662 21.7221 25.5362 21.0696C24.9062 20.4171 24.0522 20.05 23.1612 20.0486ZM23.1612 26.0473C22.6804 26.0476 22.2102 25.9001 21.8103 25.6236C21.4104 25.3471 21.0987 24.954 20.9145 24.4939C20.7303 24.0339 20.682 23.5276 20.7757 23.0391C20.8693 22.5506 21.1008 22.1019 21.4407 21.7496C21.7806 21.3974 22.2138 21.1575 22.6854 21.0602C23.1569 20.963 23.6457 21.0127 24.0899 21.2033C24.5342 21.3938 24.9139 21.7165 25.1811 22.1306C25.4483 22.5446 25.5909 23.0315 25.5909 23.5295C25.5916 24.1977 25.3359 24.8389 24.8803 25.312C24.4247 25.7851 23.8064 26.0514 23.1612 26.0524V26.0473ZM5.99759 5.95646L5.68722 1.14078L0.19353 0.962036L0.165039 1.92646L4.81444 2.07691L5.65858 15.184L7.12725 17.9449L27.1328 17.0203L28.6971 15.3486V6.30493L5.99759 5.95646ZM27.7659 14.9577L26.7205 16.0752L7.65373 16.956L6.57985 15.0092L6.05958 6.92217L27.7659 7.2565V14.9577Z" fill="white"/>
</svg>
