<svg width="13" height="8" viewBox="0 0 13 8" fill="none" xmlns="http://www.w3.org/2000/svg">
<path d="M6.271 0C2.808 0 0 3.81661 0 3.81661C0 3.81661 2.808 7.63229 6.271 7.63229C9.734 7.63229 12.542 3.81661 12.542 3.81661C12.542 3.81661 9.735 0 6.271 0ZM6.271 6.72277C5.67235 6.72258 5.08726 6.55193 4.5896 6.23237C4.09194 5.91282 3.70411 5.45873 3.47516 4.92751C3.24621 4.39629 3.18637 3.81179 3.30328 3.24793C3.42019 2.68407 3.70858 2.16615 4.13196 1.75968C4.55533 1.35321 5.09467 1.07642 5.68182 0.964323C6.26898 0.852229 6.87755 0.909858 7.4306 1.12992C7.98366 1.34998 8.45637 1.72261 8.78894 2.20066C9.12151 2.67872 9.29901 3.24074 9.29901 3.81568C9.29901 4.19757 9.22071 4.57571 9.06854 4.92854C8.91637 5.28136 8.69328 5.60195 8.41211 5.87199C8.13093 6.14203 7.79712 6.35622 7.42975 6.50237C7.06237 6.64851 6.66864 6.72374 6.271 6.72374V6.72277Z" fill="#787878"/>
</svg>
