<svg xmlns="http://www.w3.org/2000/svg" width="22.876" height="21.548" viewBox="0 0 22.876 21.548">
  <g id="Group_41" data-name="Group 41" transform="translate(-1145.146 -380.582)">
    <g id="Group_39" data-name="Group 39">
      <path id="Path_55" data-name="Path 55" d="M1157.227,402.13a10.7,10.7,0,0,1-5.373-1.443c-.129-.075-.251-.156-.373-.238l-.139-.093a.5.5,0,1,1,.547-.836l.15.1c.1.069.205.139.315.2a9.781,9.781,0,1,0-4.381-11.548.5.5,0,0,1-.95-.315,10.816,10.816,0,0,1,.9-1.989,10.772,10.772,0,1,1,9.309,16.161Z" fill="#fff"/>
    </g>
    <g id="Group_40" data-name="Group 40">
      <path id="Path_56" data-name="Path 56" d="M1152.685,386.692l-.411-.913-4.494,2.029-1.7-4.631-.939.345,2.066,5.639Z" fill="#fff"/>
    </g>
  </g>
</svg>
