<svg width="19" height="20" viewBox="0 0 19 20" fill="none" xmlns="http://www.w3.org/2000/svg">
<g id="wats-app-top">
<path id="wats-app-top_2" fill-rule="evenodd" clip-rule="evenodd" d="M9.50189 8.67117e-06C7.76114 -0.00240535 6.05333 0.499264 4.56529 1.45012C3.07724 2.40098 1.86634 3.76439 1.06507 5.39114C0.263802 7.0179 -0.0969487 8.84532 0.0222932 10.6734C0.141535 12.5016 0.736141 14.2599 1.74111 15.7561L1.7177 15.7335L1.00059 20L4.74358 18.6612L4.70931 18.6283C5.96862 19.4036 7.3807 19.8631 8.836 19.9711C10.2913 20.0791 11.7507 19.8327 13.1009 19.251C14.4511 18.6692 15.6557 17.7679 16.6215 16.6168C17.5872 15.4657 18.288 14.0959 18.6696 12.6136C19.0511 11.1312 19.103 9.57635 18.8213 8.0695C18.5397 6.56266 17.932 5.14439 17.0454 3.92475C16.1589 2.70511 15.0172 1.71689 13.7092 1.03678C12.4011 0.356677 10.9619 0.00296589 9.50296 0.00309838L9.50189 8.67117e-06ZM15.1947 14.4225C14.8126 15.0047 14.2643 15.4437 13.6293 15.6758C12.9792 15.9138 12.2719 15.9138 11.6218 15.6758C11.0629 15.5411 10.5158 15.3571 9.98614 15.1259C9.75099 14.9911 9.50095 14.8873 9.24167 14.817C8.79166 14.5008 8.34654 14.267 7.90141 13.956L7.15599 13.3299L6.18845 12.3104C5.319 11.3127 4.56981 10.2059 3.95791 9.01499C3.70538 8.39728 3.57843 7.73079 3.5852 7.05835C3.5875 6.39127 3.76863 5.7384 4.10767 5.17482C4.40115 4.70522 4.84825 4.15633 5.37066 4.15633C5.89306 4.15633 6.18847 4.0791 6.41152 4.39422C6.5612 4.62902 6.78419 5.33238 6.93387 5.6475C7.16445 6.1832 7.36313 6.7335 7.5287 7.2952C7.5287 7.92133 6.56116 8.70502 6.56116 8.9429C6.73217 9.47064 7.01145 9.9523 7.37907 10.3537L7.75082 10.8223C7.75043 10.8328 7.75198 10.8432 7.75548 10.853C7.75898 10.8628 7.76429 10.8717 7.77113 10.8793C7.77797 10.8869 7.78627 10.8929 7.79537 10.8971C7.80447 10.9013 7.81422 10.9035 7.82415 10.9037L8.94133 11.9984C9.15477 12.1023 9.35495 12.2341 9.53712 12.3907C9.75919 12.4669 9.98614 12.6255 10.2053 12.6997C11.0231 13.091 10.9498 13.2496 11.4722 12.5462C11.5446 12.5462 11.5446 12.4649 11.5446 12.4649C11.6219 12.3887 11.6943 12.3114 11.7677 12.2342L12.067 11.7625C12.2128 11.6843 12.29 11.3691 12.5121 11.3691C13.0593 11.5373 13.585 11.7753 14.0774 12.0777C14.3176 12.2229 14.5664 12.3522 14.8219 12.4649C15.1213 12.6235 15.4176 12.6997 15.4176 13.0148C15.42 13.4923 15.3447 13.9667 15.1947 14.4174V14.4225Z" fill="#4CAF50"/>
</g>
</svg>
