<svg width="471" height="495" viewBox="0 0 471 495" fill="none" xmlns="http://www.w3.org/2000/svg">
<g id="&#208;&#161;&#208;&#187;&#208;&#190;&#208;&#185;_2">
<g id="Group">
<g id="Group_2">
<g id="Group_3">
<path id="Vector" d="M114.804 276.5C114.804 179.1 194.104 100.2 291.904 100.2C312.704 100.2 332.604 103.8 351.104 110.3" stroke="#FBF361" stroke-width="3" stroke-miterlimit="10" stroke-linecap="round" stroke-linejoin="round"/>
<path id="Vector_2" d="M143.504 372.8C133.104 357 125.204 339.4 120.404 320.6" stroke="#FBF361" stroke-width="3" stroke-miterlimit="10" stroke-linecap="round" stroke-linejoin="round"/>
<path id="Vector_3" d="M227.704 440.9C208.804 433.6 191.404 423.1 176.304 410.1" stroke="#FBF361" stroke-width="3" stroke-miterlimit="10" stroke-linecap="round" stroke-linejoin="round"/>
<path id="Vector_4" d="M418.404 153.1C449.704 184.9 469.004 228.5 469.004 276.5C469.004 348.5 425.704 410.4 363.604 437.8" stroke="#FBF361" stroke-width="3" stroke-miterlimit="10" stroke-linecap="round" stroke-linejoin="round"/>
</g>
</g>
<path id="Vector_5" d="M376.504 470C373.704 470.4 367.904 471.1 363.104 471.3C360.704 471.4 358.304 474.4 359.304 477.6C360.304 480.7 376.504 488 376.504 488C376.504 488 380.404 488.3 381.504 486.9C382.704 485.5 385.104 479 385.104 479V473.2C385.104 473.2 379.204 469.5 376.504 470Z" fill="#95601C"/>
<path id="Vector_6" d="M437.404 484.3C438.104 480.5 438.604 473.4 438.604 473.4L446.804 464.3L449.004 463.4C449.004 463.4 455.304 468.8 456.304 469.7C457.304 470.6 456.304 474.2 456.304 474.2C456.304 474.2 446.604 486.1 443.504 488.5C440.404 490.8 436.904 486.9 437.404 484.3Z" fill="#95601C"/>
<path id="Vector_7" d="M394.204 425C381.704 441 381.704 441 381.704 441C381.704 441 377.904 448.9 377.604 453.2C377.304 457.5 376.404 470 376.404 470C376.404 470 376.504 474.8 380.304 476.3C384.204 477.8 387.104 475.5 387.804 474.9C394.104 469.8 395.004 459.5 397.604 455.8C400.204 452.1 401.804 446.6 405.804 444.2C409.804 441.8 412.004 436.7 412.004 436.7L410.304 424.9H394.204V425Z" fill="#1A286D"/>
<path id="Vector_8" d="M464.204 99.4H459.304C457.604 99.4 456.004 98.0999 455.704 96.5L454.304 91.1999C453.804 89.5999 454.504 87.7 456.004 86.8L460.304 84.3C461.704 83.5 462.204 81.5999 461.404 80.1999L455.904 70.6999C455.104 69.2999 453.204 68.7999 451.804 69.5999L447.504 72.0999C446.104 72.8999 444.004 72.6 442.904 71.4L439.004 67.5C437.804 66.4 437.404 64.3 438.304 62.9L440.804 58.5999C441.604 57.1999 441.104 55.3 439.704 54.5L430.204 49C428.804 48.2 426.904 48.6999 426.104 50.0999L423.604 54.4C422.804 55.8 420.804 56.5999 419.204 56.0999L413.904 54.7C412.304 54.4 411.004 52.6999 411.004 51.0999V46.2C411.004 44.5 409.704 43.2 408.004 43.2H397.104C395.404 43.2 394.104 44.5 394.104 46.2V51.0999C394.104 52.7999 392.804 54.4 391.204 54.7L385.904 56.0999C384.304 56.5999 382.404 55.9 381.504 54.4L379.004 50.0999C378.204 48.6999 376.304 48.2 374.904 49L365.404 54.5C364.004 55.3 363.504 57.1999 364.304 58.5999L366.804 62.9C367.604 64.3 367.304 66.4 366.104 67.5L362.204 71.4C361.104 72.6 359.004 72.9999 357.604 72.0999L353.304 69.5999C351.904 68.7999 350.004 69.2999 349.204 70.6999L343.704 80.1999C342.904 81.5999 343.404 83.5 344.804 84.3L349.104 86.8C350.504 87.6 351.304 89.5999 350.804 91.1999L349.404 96.5C349.104 98.0999 347.404 99.4 345.804 99.4H340.904C339.204 99.4 337.904 100.7 337.904 102.4V113.3C337.904 115 339.204 116.3 340.904 116.3H345.804C347.504 116.3 349.104 117.6 349.404 119.2L350.804 124.5C351.304 126.1 350.604 128 349.104 128.9L344.804 131.4C343.404 132.2 342.904 134.1 343.704 135.5L349.204 145C350.004 146.4 351.904 146.9 353.304 146.1L357.604 143.6C359.004 142.8 361.104 143.1 362.204 144.3L366.104 148.2C367.304 149.3 367.704 151.4 366.804 152.8L364.304 157.1C363.504 158.5 364.004 160.4 365.404 161.2L374.904 166.7C376.304 167.5 378.204 167 379.004 165.6L381.504 161.3C382.304 159.9 384.304 159.1 385.904 159.6L391.204 161C392.804 161.3 394.104 163 394.104 164.6V169.5C394.104 171.2 395.404 172.5 397.104 172.5H408.004C409.704 172.5 411.004 171.2 411.004 169.5V164.6C411.004 162.9 412.304 161.3 413.904 161L419.204 159.6C420.804 159.1 422.704 159.8 423.604 161.3L426.104 165.6C426.904 167 428.804 167.5 430.204 166.7L439.704 161.2C441.104 160.4 441.604 158.5 440.804 157.1L438.304 152.8C437.504 151.4 437.804 149.3 439.004 148.2L442.904 144.3C444.004 143.1 446.104 142.7 447.504 143.6L451.804 146.1C453.204 146.9 455.104 146.4 455.904 145L461.404 135.5C462.204 134.1 461.704 132.2 460.304 131.4L456.004 128.9C454.604 128.1 453.804 126.1 454.304 124.5L455.704 119.2C456.004 117.6 457.704 116.3 459.304 116.3H464.204C465.904 116.3 467.204 115 467.204 113.3V102.4C467.204 100.8 465.904 99.4 464.204 99.4ZM403.504 142.1C385.104 142.1 370.204 127.2 370.204 108.8C370.204 90.4 385.104 75.5 403.504 75.5C421.904 75.5 436.804 90.4 436.804 108.8C436.804 127.2 421.904 142.1 403.504 142.1Z" fill="#9E9E9E"/>
<path id="Vector_9" d="M403.504 64.5C379.004 64.5 359.204 84.3 359.204 108.8C359.204 133.3 379.004 153.1 403.504 153.1C428.004 153.1 447.804 133.3 447.804 108.8C447.804 84.3 427.904 64.5 403.504 64.5ZM403.504 145.4C383.304 145.4 366.904 129 366.904 108.8C366.904 88.6 383.304 72.2 403.504 72.2C423.704 72.2 440.104 88.6 440.104 108.8C440.104 129 423.704 145.4 403.504 145.4Z" fill="#BABCBE"/>
<g id="Group_4">
<path id="Vector_10" d="M339.404 36H336.304C335.204 36 334.204 35.2 334.004 34.1L333.104 30.7C332.804 29.7 333.304 28.4 334.204 27.9L336.904 26.3C337.804 25.8 338.104 24.6 337.604 23.7L334.104 17.6C333.604 16.7 332.404 16.4 331.504 16.9L328.804 18.5C327.904 19 326.604 18.8 325.904 18L323.404 15.5C322.604 14.8 322.404 13.5 322.904 12.6L324.504 9.9C325.004 9 324.704 7.8 323.804 7.3L317.704 3.8C316.804 3.3 315.604 3.6 315.104 4.5L313.504 7.2C313.004 8.1 311.704 8.6 310.704 8.3L307.304 7.4C306.304 7.2 305.404 6.1 305.404 5.1V1.9C305.404 0.8 304.504 0 303.504 0H296.504C295.404 0 294.604 0.9 294.604 1.9V5C294.604 6.1 293.804 7.1 292.704 7.3L289.304 8.2C288.304 8.5 287.004 8 286.504 7.1L284.904 4.4C284.404 3.5 283.204 3.2 282.304 3.7L276.204 7.2C275.304 7.7 275.004 8.9 275.504 9.8L277.104 12.5C277.604 13.4 277.404 14.7 276.604 15.4L274.104 17.9C273.404 18.7 272.104 18.9 271.204 18.4L268.504 16.8C267.604 16.3 266.404 16.6 265.904 17.5L262.404 23.6C261.904 24.5 262.204 25.7 263.104 26.2L265.804 27.8C266.704 28.3 267.204 29.6 266.904 30.6L266.004 34C265.804 35 264.704 35.9 263.704 35.9H260.604C259.504 35.9 258.704 36.8 258.704 37.8V44.8C258.704 45.9 259.604 46.7 260.604 46.7H263.704C264.804 46.7 265.804 47.5 266.004 48.6L266.904 52C267.204 53 266.704 54.3 265.804 54.8L263.104 56.4C262.204 56.9 261.904 58.1 262.404 59L265.904 65.1C266.404 66 267.604 66.3 268.504 65.8L271.204 64.2C272.104 63.7 273.404 63.9 274.104 64.7L276.604 67.2C277.404 67.9 277.604 69.2 277.104 70.1L275.504 72.8C275.004 73.7 275.304 74.9 276.204 75.4L282.304 78.9C283.204 79.4 284.404 79.1 284.904 78.2L286.504 75.5C287.004 74.6 288.304 74.1 289.304 74.4L292.704 75.3C293.704 75.5 294.604 76.6 294.604 77.6V80.7C294.604 81.8 295.504 82.6 296.504 82.6H303.504C304.604 82.6 305.404 81.7 305.404 80.7V77.6C305.404 76.5 306.204 75.5 307.304 75.3L310.704 74.4C311.704 74.1 313.004 74.6 313.504 75.5L315.104 78.2C315.604 79.1 316.804 79.4 317.704 78.9L323.804 75.4C324.704 74.9 325.004 73.7 324.504 72.8L322.904 70.1C322.404 69.2 322.604 67.9 323.404 67.2L325.904 64.7C326.604 63.9 327.904 63.7 328.804 64.2L331.504 65.8C332.404 66.3 333.604 66 334.104 65.1L337.604 59C338.104 58.1 337.804 56.9 336.904 56.4L334.204 54.8C333.304 54.3 332.804 53 333.104 52L334.004 48.6C334.204 47.6 335.304 46.7 336.304 46.7H339.404C340.504 46.7 341.304 45.8 341.304 44.8V37.8C341.304 36.8 340.404 36 339.404 36ZM300.504 62.2C288.704 62.2 279.204 52.7 279.204 40.9C279.204 29.1 288.704 19.6 300.504 19.6C312.304 19.6 321.804 29.1 321.804 40.9C321.804 52.7 312.304 62.2 300.504 62.2Z" fill="#CF8C2B"/>
<path id="Vector_11" d="M300.504 12.3999C284.804 12.3999 272.104 25.1999 272.104 41.0999C272.104 56.9999 284.804 69.7999 300.504 69.7999C316.204 69.7999 328.904 56.9999 328.904 41.0999C328.904 25.1999 316.204 12.3999 300.504 12.3999ZM300.504 64.6999C287.604 64.6999 277.104 54.0999 277.104 40.9999C277.104 27.8999 287.604 17.2999 300.504 17.2999C313.404 17.2999 323.904 27.8999 323.904 40.9999C323.904 54.0999 313.404 64.6999 300.504 64.6999Z" fill="#C7792A"/>
<path id="Vector_12" d="M300.504 17.3999C287.604 17.3999 277.104 27.9999 277.104 41.0999C277.104 54.1999 287.604 64.7999 300.504 64.7999C313.404 64.7999 323.904 54.1999 323.904 41.0999C323.904 27.9999 313.404 17.3999 300.504 17.3999ZM300.504 62.1999C288.704 62.1999 279.204 52.6999 279.204 40.8999C279.204 29.0999 288.704 19.5999 300.504 19.5999C312.304 19.5999 321.804 29.0999 321.804 40.8999C321.804 52.6999 312.304 62.1999 300.504 62.1999Z" fill="#A36620"/>
</g>
<g id="Group_5">
<path id="Vector_13" d="M195.404 407.1H190.604C189.004 407.1 187.404 405.8 187.004 404.2L185.604 399C185.104 397.5 185.804 395.5 187.204 394.7L191.404 392.3C192.804 391.5 193.304 389.7 192.504 388.3L187.104 379C186.304 377.6 184.504 377.1 183.104 377.9L178.904 380.3C177.504 381.1 175.504 380.8 174.404 379.6L170.604 375.8C169.404 374.7 169.104 372.7 169.904 371.3L172.304 367.1C173.104 365.7 172.604 363.9 171.204 363.1L161.904 357.7C160.504 356.9 158.704 357.4 157.904 358.8L155.504 363C154.704 364.4 152.804 365.1 151.204 364.6L146.004 363.2C144.404 362.9 143.104 361.3 143.104 359.6V354.8C143.104 353.2 141.804 351.9 140.204 351.9H129.504C127.904 351.9 126.604 353.2 126.604 354.8V359.6C126.604 361.2 125.304 362.8 123.704 363.2L118.504 364.6C117.004 365.1 115.004 364.4 114.204 363L111.804 358.8C111.004 357.4 109.204 356.9 107.804 357.7L98.5043 363.1C97.1043 363.9 96.6043 365.7 97.4043 367.1L99.8043 371.3C100.604 372.7 100.304 374.7 99.1043 375.8L95.3043 379.6C94.2043 380.8 92.2043 381.1 90.8043 380.3L86.6043 377.9C85.2043 377.1 83.4043 377.6 82.6043 379L77.2043 388.3C76.4043 389.7 76.9043 391.5 78.3043 392.3L82.5043 394.7C83.9043 395.5 84.6043 397.4 84.1043 399L82.7043 404.2C82.4043 405.8 80.8043 407.1 79.1043 407.1H74.3043C72.7043 407.1 71.4043 408.4 71.4043 410V420.7C71.4043 422.3 72.7043 423.6 74.3043 423.6H79.1043C80.7043 423.6 82.3043 424.9 82.7043 426.5L84.1043 431.7C84.6043 433.2 83.9043 435.2 82.5043 436L78.3043 438.4C76.9043 439.2 76.4043 441 77.2043 442.4L82.6043 451.7C83.4043 453.1 85.2043 453.6 86.6043 452.8L90.8043 450.4C92.2043 449.6 94.2043 449.9 95.3043 451.1L99.1043 455C100.304 456.1 100.604 458.1 99.8043 459.5L97.4043 463.7C96.6043 465.1 97.1043 466.9 98.5043 467.7L107.804 473.1C109.204 473.9 111.004 473.4 111.804 472L114.204 467.8C115.004 466.4 116.904 465.7 118.504 466.2L123.704 467.6C125.304 467.9 126.604 469.5 126.604 471.2V476C126.604 477.6 127.904 478.9 129.504 478.9H140.204C141.804 478.9 143.104 477.6 143.104 476V471.2C143.104 469.6 144.404 468 146.004 467.6L151.204 466.2C152.704 465.7 154.704 466.4 155.504 467.8L157.904 472C158.704 473.4 160.504 473.9 161.904 473.1L171.204 467.7C172.604 466.9 173.104 465.1 172.304 463.7L169.904 459.5C169.104 458.1 169.404 456.1 170.604 455L174.404 451.2C175.504 450 177.504 449.7 178.904 450.5L183.104 452.9C184.504 453.7 186.304 453.2 187.104 451.8L192.504 442.5C193.304 441.1 192.804 439.3 191.404 438.5L187.204 436.1C185.804 435.3 185.104 433.4 185.604 431.8L187.004 426.6C187.304 425 188.904 423.7 190.604 423.7H195.404C197.004 423.7 198.304 422.4 198.304 420.8V410C198.404 408.4 197.004 407.1 195.404 407.1ZM135.804 447.3C117.704 447.3 103.104 432.7 103.104 414.6C103.104 396.5 117.704 381.9 135.804 381.9C153.904 381.9 168.504 396.5 168.504 414.6C168.504 432.7 153.804 447.3 135.804 447.3Z" fill="#6D6E70"/>
<path id="Vector_14" d="M135.804 371C111.804 371 92.3042 390.7 92.3042 414.9C92.3042 439.2 111.804 458.8 135.804 458.8C159.804 458.8 179.304 439.1 179.304 414.9C179.304 390.7 159.804 371 135.804 371ZM135.804 451.2C116.004 451.2 99.9042 435 99.9042 414.9C99.9042 394.8 116.004 378.6 135.804 378.6C155.604 378.6 171.704 394.8 171.704 414.9C171.704 435 155.604 451.2 135.804 451.2Z" fill="#59595B"/>
<path id="Vector_15" d="M135.804 378.7C116.004 378.7 99.9043 394.9 99.9043 415C99.9043 435.1 116.004 451.3 135.804 451.3C155.604 451.3 171.704 435.1 171.704 415C171.704 394.9 155.604 378.7 135.804 378.7ZM135.804 447.3C117.704 447.3 103.104 432.7 103.104 414.6C103.104 396.5 117.704 381.9 135.804 381.9C153.904 381.9 168.504 396.5 168.504 414.6C168.504 432.7 153.804 447.3 135.804 447.3Z" fill="#424244"/>
</g>
<path id="Vector_16" d="M141.205 289.1C170.805 279 170.805 279 170.805 279C172.505 284.1 170.805 294.9 162.605 300.1C160.105 301.7 147.605 307.5 147.605 307.5L141.205 289.1Z" fill="#C6C6C6"/>
<g id="Group_6">
<path id="Vector_17" d="M113.504 297.4L120.804 317.5L131.604 312.6L123.804 293.4L113.504 297.4Z" fill="#C6C6C6"/>
<path id="Vector_18" d="M127.104 297.7L114.604 305.3C114.504 305.4 114.304 305.4 114.204 305.4C113.904 305.4 113.704 305.3 113.604 305C113.404 304.6 113.504 304.2 113.904 304L126.404 296.4C126.804 296.2 127.204 296.3 127.404 296.7C127.604 297 127.504 297.4 127.104 297.7ZM125.604 294.4L113.104 302C113.004 302.1 112.804 302.1 112.704 302.1C112.404 302.1 112.204 302 112.104 301.7C111.904 301.3 112.004 300.9 112.404 300.7L124.904 293.1C125.304 292.9 125.704 293 125.904 293.4C126.004 293.7 125.904 294.2 125.604 294.4ZM128.704 300.1C128.504 299.7 128.004 299.6 127.704 299.8L115.204 307.4C114.804 307.6 114.704 308.1 114.904 308.4C115.004 308.6 115.304 308.8 115.504 308.8C115.604 308.8 115.804 308.8 115.904 308.7L128.404 301.1C128.804 300.9 128.904 300.4 128.704 300.1ZM130.304 304.9C130.704 304.7 130.804 304.2 130.604 303.9C130.404 303.5 129.904 303.4 129.604 303.6L117.104 311.2C116.704 311.4 116.604 311.9 116.804 312.2C116.904 312.4 117.204 312.6 117.404 312.6C117.504 312.6 117.704 312.6 117.804 312.5L130.304 304.9ZM131.504 307C131.304 306.6 130.804 306.5 130.504 306.7L118.004 314.3C117.604 314.5 117.504 315 117.704 315.3C117.804 315.5 118.104 315.7 118.304 315.7C118.404 315.7 118.604 315.7 118.704 315.6L131.204 308C131.604 307.8 131.704 307.4 131.504 307Z" fill="#A0A0A0"/>
</g>
<path id="Vector_19" d="M135.804 266.7C137.604 265.9 160.004 255.8 162.504 254.8C158.304 249.4 140.704 243.4 129.904 246.6C110.604 252.3 109.004 265.4 106.704 278.8C104.604 290.7 105.404 300.1 99.8043 305.6C93.4043 312 16.7043 367.8 9.60435 373.2C0.204349 380.3 -2.29565 385.3 2.10435 393.3C6.50435 401.3 17.1043 399.4 21.4043 395.6C34.2043 384.3 101.204 332.5 109.104 328.4C126.004 319.7 138.204 320 143.204 317.5C144.804 316.7 149.304 313.1 149.304 313.1L134.704 271C133.904 269 134.004 267.5 135.804 266.7ZM13.2043 395.3C8.60435 395.3 4.90435 391.6 4.90435 387C4.90435 382.4 8.60435 378.7 13.2043 378.7C17.8043 378.7 21.5043 382.4 21.5043 387C21.5043 391.6 17.8043 395.3 13.2043 395.3ZM116.704 317.5C116.004 317 111.004 302.4 111.304 300.9C111.604 298.7 127.904 291.1 128.904 293.4C129.904 295.7 134.804 308.9 134.804 308.9C134.804 308.9 118.204 318.6 116.704 317.5Z" fill="#E5E5E6"/>
<path id="Vector_20" d="M16.0044 372.6C24.6044 374.5 27.7044 385.4 26.7044 386.8C36.3044 378.7 102.104 327.1 111.704 322.3C111.404 321.3 105.804 306.4 105.204 303.7C101.004 312.5 94.9044 316.7 92.3044 318.6C89.7044 320.5 35.5044 360 16.0044 372.6Z" fill="#BABCBE"/>
<g id="Group_7">
<path id="Vector_21" d="M334.604 426.1C334.104 428.2 331.904 430 329.704 430H253.704C251.504 430 249.304 428.3 248.804 426.1L247.704 421.5C247.204 419.4 248.604 417.6 250.804 417.6H332.804C335.004 417.6 336.404 419.3 335.904 421.5L334.604 426.1Z" fill="#9E9E9E"/>
</g>
<g id="Group_8">
<path id="Vector_22" d="M332.604 444.2C332.004 446.9 329.204 449.1 326.504 449.1H256.904C254.104 449.1 251.404 446.9 250.804 444.2L250.204 441.6C249.604 438.9 251.304 436.7 254.104 436.7H329.404C332.204 436.7 333.904 438.9 333.304 441.6L332.604 444.2Z" fill="#919395"/>
</g>
<g id="Group_9">
<path id="Vector_23" d="M327.205 462.3C326.605 465.5 323.305 468.2 320.005 468.2H263.305C260.005 468.2 256.805 465.6 256.105 462.3L256.005 461.7C255.405 458.5 257.505 455.8 260.805 455.8H322.404C325.704 455.8 327.905 458.4 327.205 461.7V462.3Z" fill="#6D6E70"/>
</g>
<path id="Vector_24" d="M315.904 489C314.204 491.8 310.204 494.2 306.904 494.2H277.305C274.005 494.2 269.904 491.9 268.104 489.1L262.404 480L259.104 474.9H324.604L321.104 480.1L315.904 489Z" fill="#59595B"/>
<path id="Vector_25" d="M395.804 253.2C395.804 196.8 349.004 151.1 291.404 151.1C233.704 151.1 187.004 196.8 187.004 253.2C187.004 289.6 229.604 358.9 229.604 358.9C233.104 364.5 235.904 374.5 235.904 381.1V395C235.904 401.6 241.304 407 247.904 407H335.104C341.704 407 347.104 401.6 347.104 395V381.2C347.104 374.6 349.904 364.6 353.404 359C353.204 358.9 395.804 289.6 395.804 253.2Z" fill="#F2D031"/>
<path id="Vector_26" d="M283.404 398.9C276.404 347.1 275.504 311.2 255.604 299.5C250.904 296.7 240.004 293 236.104 299.8C230.504 309.3 243.204 316.2 250.004 319.4C259.004 323.6 277.504 325.3 294.004 325.7C308.604 326 328.504 321.3 337.904 319.1C347.204 316.9 354.604 307.5 351.604 299.9C350.404 296.8 346.804 293.9 336.604 296.4C304.904 304.4 303.204 397.3 303.204 397.3" stroke="black" stroke-width="5" stroke-miterlimit="10" stroke-linecap="round" stroke-linejoin="round"/>
<path id="Vector_27" d="M295.304 220.7C330.595 220.7 359.204 207.716 359.204 191.7C359.204 175.684 330.595 162.7 295.304 162.7C260.013 162.7 231.404 175.684 231.404 191.7C231.404 207.716 260.013 220.7 295.304 220.7Z" fill="#F8E798"/>
<path id="Vector_28" d="M238.904 355.3C231.404 330.6 175.804 279.1 202.604 205.1C192.204 226.6 188.004 247.6 192.104 267C198.304 296.3 214.904 325 229.804 349.8C248.004 380.2 233.104 388.5 243.004 403.4C243.904 398.9 243.104 369 238.904 355.3Z" fill="#FCF6D7"/>
<path id="Vector_29" d="M342.304 355.3C349.804 330.6 405.404 279.1 378.604 205.1C389.004 226.6 393.204 247.6 389.104 267C382.904 296.3 366.304 325 351.404 349.8C333.204 380.2 348.104 388.5 338.204 403.4C337.304 398.9 338.104 369 342.304 355.3Z" fill="#FCF6D7"/>
<path id="Vector_30" d="M375.304 364.2C375.004 365.4 374.904 366.7 374.904 368.1C374.904 378.4 383.204 386.7 393.504 386.7C403.804 386.7 412.104 378.4 412.104 368.1C412.104 366.8 412.004 365.5 411.704 364.2H375.304Z" fill="#EFC9A1"/>
<path id="Vector_31" d="M392.904 336.7C381.104 336.7 371.504 346.3 371.504 358.1H414.304C414.304 346.3 404.704 336.7 392.904 336.7Z" fill="#F5DC34"/>
<g id="Group_10">
<path id="Vector_32" d="M419.704 361.2C419.704 362.8 418.304 364.2 416.704 364.2H368.904C367.304 364.2 365.904 362.8 365.904 361.2V361.1C365.904 359.5 367.304 358.1 368.904 358.1H416.704C418.304 358.1 419.704 359.5 419.704 361.1V361.2Z" fill="#EDB92B"/>
</g>
<path id="Vector_33" d="M361.204 413.8C358.804 411.6 359.404 407 364.304 407C368.204 407 375.904 409 377.604 409.1C380.504 409.3 385.504 406.2 385.504 406.2L389.804 416.9C389.804 416.9 382.704 419 377.604 418.9C370.204 418.6 363.604 416 361.204 413.8Z" fill="#EFC9A3"/>
<path id="Vector_34" d="M426.004 427C427.504 428.4 425.604 441.1 426.004 444.3C426.404 447.6 431.504 452.4 431.504 452.4C431.504 452.4 447.104 460.2 447.804 461.1C448.504 462.1 449.004 467.5 446.404 471.2C443.804 475 440.504 474.6 437.804 473.1C435.104 471.6 420.304 463.2 415.704 461C411.104 458.8 407.904 453.7 406.704 446.7C406.204 443.7 405.204 433.3 405.204 433.3C405.204 433.3 424.504 425.6 426.004 427Z" fill="#2A3B8E"/>
<path id="Vector_35" d="M407.304 382.4C410.604 381.5 418.604 384.9 419.604 389.4C420.604 393.9 425.804 411.2 427.104 418.7C428.004 423.9 426.704 425.8 425.904 426.9C423.804 430 414.404 436.1 402.904 432.7C393.404 429.9 385.904 408.7 384.604 403.7C383.204 398.8 385.604 390.7 386.304 388.6C387.104 386.7 404.104 383.2 407.304 382.4Z" fill="#FE0000"/>
<path id="Vector_36" d="M377.805 404.2C382.105 404.2 396.305 403.7 401.805 401.8C407.305 399.9 408.805 397.7 408.805 391.5C408.805 385.3 402.605 385.5 402.605 385.5L378.904 391.2C371.404 391.7 364.205 386.1 362.705 385C356.605 380.7 350.104 386.7 356.904 393.9C360.504 397.5 373.605 404.2 377.805 404.2Z" fill="#EFC9A3"/>
</g>
</g>
</svg>
