<svg width="27" height="41" viewBox="0 0 27 41" fill="none" xmlns="http://www.w3.org/2000/svg">
<path d="M26.659 37.0807C26.659 38.9388 20.691 40.4457 13.329 40.4457C5.96699 40.4457 0 38.9388 0 37.0807C0 35.5477 4.068 34.2567 9.625 33.8507L11.498 36.7027C11.68 36.9798 11.9281 37.2073 12.2199 37.3647C12.5117 37.5221 12.838 37.6045 13.1695 37.6045C13.501 37.6045 13.8273 37.5221 14.1191 37.3647C14.4109 37.2073 14.6589 36.9798 14.841 36.7027L16.728 33.8307C22.44 34.2108 26.659 35.5197 26.659 37.0807ZM9.15399 19.1807H17.214C17.4782 19.1774 17.7306 19.0709 17.9174 18.8841C18.1042 18.6973 18.2106 18.4449 18.214 18.1807V11.1627H8.15399V18.1807C8.15788 18.4445 8.26455 18.6964 8.45131 18.8828C8.63807 19.0692 8.89016 19.1754 9.15399 19.1787V19.1807ZM15.105 6.13074C15.1016 5.86657 14.9952 5.61418 14.8084 5.42737C14.6216 5.24056 14.3692 5.13411 14.105 5.13074H12.172C11.9078 5.13411 11.6554 5.24056 11.4686 5.42737C11.2818 5.61418 11.1754 5.86657 11.172 6.13074V9.16272H15.107L15.105 6.13074ZM2.765 19.7677C1.46326 17.8723 0.703991 15.6573 0.569199 13.3619C0.434406 11.0665 0.929196 8.77789 2.00015 6.74316C3.07111 4.70843 4.67755 3.00492 6.646 1.81653C8.61445 0.628135 10.8701 0 13.1695 0C15.4689 0 17.7245 0.628135 19.693 1.81653C21.6614 3.00492 23.2679 4.70843 24.3388 6.74316C25.4098 8.77789 25.9046 11.0665 25.7698 13.3619C25.635 15.6573 24.8757 17.8723 23.574 19.7677L13.174 35.6068L2.765 19.7677ZM6.15399 18.1807C6.15637 18.9756 6.4732 19.7373 7.03529 20.2994C7.59739 20.8615 8.35907 21.1784 9.15399 21.1807H17.214C18.0089 21.1784 18.7706 20.8615 19.3327 20.2994C19.8948 19.7373 20.2116 18.9756 20.214 18.1807V9.16272H17.105V6.13074C17.1026 5.33582 16.7858 4.57412 16.2237 4.01202C15.6616 3.44993 14.8999 3.13311 14.105 3.13074H12.172C11.3771 3.13311 10.6154 3.44993 10.0533 4.01202C9.4912 4.57412 9.17437 5.33582 9.172 6.13074V9.16272H6.15599L6.15399 18.1807Z" fill="#FF0000"/>
</svg>
