<svg width="17" height="24" viewBox="0 0 17 24" fill="none" xmlns="http://www.w3.org/2000/svg">
<g id="logo-kabinet">
<path id="logo-kabinet_2" d="M3.2659 6.3221C3.2659 5.29187 3.55763 4.28477 4.10414 3.42816C4.65064 2.57156 5.4274 1.90392 6.3362 1.50967C7.245 1.11542 8.24505 1.01226 9.20982 1.21325C10.1746 1.41424 11.0608 1.91034 11.7563 2.63882C12.4519 3.36731 12.9256 4.29545 13.1175 5.30588C13.3094 6.31632 13.2108 7.36366 12.8344 8.31547C12.458 9.26728 11.8205 10.0808 11.0026 10.6532C10.1847 11.2255 9.22316 11.531 8.23948 11.531C7.5863 11.5312 6.93944 11.3965 6.33596 11.1348C5.73248 10.8731 5.18424 10.4894 4.72238 10.0057C4.26052 9.52195 3.89409 8.94767 3.64419 8.31563C3.39429 7.68359 3.26577 7.00618 3.2659 6.3221ZM13.6322 12.8799H11.835C10.7417 13.5411 9.50148 13.8892 8.239 13.8892C6.97652 13.8892 5.73628 13.5411 4.64299 12.8799H3.36968C1.79181 12.8799 0.5 15.2341 0.5 16.8877V21.1088C0.5 22.7623 1.79181 23.1132 3.36968 23.1132H13.6294C15.2082 23.1132 16.5 22.7623 16.5 21.1088V16.8877C16.5029 15.2341 15.2111 12.8799 13.6322 12.8799Z" stroke="white" stroke-linecap="round" stroke-linejoin="round"/>
</g>
</svg>
