<svg width="24" height="22" viewBox="0 0 24 22" fill="none" xmlns="http://www.w3.org/2000/svg">
<g id="logo-korzina">
<path id="logo-korzina_2" d="M9.13611 15.9991C8.60006 15.9991 8.07599 16.1637 7.63029 16.4722C7.18459 16.7807 6.83729 17.2192 6.63219 17.7321C6.4271 18.2451 6.37349 18.8096 6.47814 19.3541C6.58279 19.8987 6.84094 20.3988 7.22006 20.7914C7.59917 21.1839 8.08221 21.4512 8.60799 21.5593C9.13377 21.6675 9.67872 21.6118 10.1739 21.3992C10.6691 21.1866 11.0923 20.8266 11.39 20.3649C11.6876 19.9031 11.8464 19.3603 11.8462 18.8051C11.8452 18.061 11.5592 17.3478 11.0512 16.8218C10.5431 16.2957 9.85447 15.9999 9.13611 15.9991ZM9.13611 20.8347C8.74855 20.8347 8.36973 20.7157 8.04749 20.4926C7.72524 20.2696 7.47404 19.9526 7.32573 19.5818C7.17742 19.2109 7.13858 18.8028 7.21419 18.4091C7.2898 18.0154 7.47646 17.6538 7.7505 17.3699C8.02455 17.0861 8.37374 16.8928 8.75385 16.8145C9.13397 16.7361 9.52791 16.7763 9.88597 16.9299C10.244 17.0836 10.5501 17.3437 10.7654 17.6775C10.9808 18.0112 11.0957 18.4037 11.0957 18.8051C11.0959 19.0719 11.0454 19.3361 10.9471 19.5827C10.8488 19.8293 10.7045 20.0534 10.5226 20.2423C10.3406 20.4312 10.1245 20.581 9.88658 20.6834C9.64869 20.7857 9.39371 20.8386 9.13611 20.8388V20.8347ZM18.6546 15.9991C18.1185 15.9989 17.5943 16.1633 17.1485 16.4717C16.7027 16.7801 16.3552 17.2185 16.1499 17.7314C15.9447 18.2444 15.891 18.8089 15.9955 19.3535C16.1 19.8981 16.3581 20.3984 16.7372 20.791C17.1163 21.1836 17.5993 21.451 18.1251 21.5593C18.6509 21.6675 19.1959 21.6119 19.6912 21.3993C20.1864 21.1867 20.6096 20.8268 20.9073 20.365C21.205 19.9032 21.3639 19.3603 21.3637 18.8051C21.3627 18.0612 21.0769 17.3481 20.569 16.8221C20.0612 16.2961 19.3728 16.0002 18.6546 15.9991ZM18.6546 20.8347C18.267 20.8349 17.888 20.716 17.5656 20.4931C17.2432 20.2702 16.9919 19.9533 16.8435 19.5825C16.695 19.2116 16.6561 18.8035 16.7316 18.4097C16.8071 18.016 16.9936 17.6542 17.2676 17.3703C17.5416 17.0863 17.8908 16.8929 18.271 16.8145C18.6511 16.7361 19.0451 16.7763 19.4032 16.9299C19.7613 17.0834 20.0674 17.3436 20.2828 17.6774C20.4982 18.0112 20.6131 18.4036 20.6131 18.8051C20.6137 19.3437 20.4076 19.8606 20.0403 20.2419C19.673 20.6233 19.1746 20.838 18.6546 20.8388V20.8347ZM4.81876 4.63922L4.56856 0.757243L0.140033 0.613159L0.117065 1.39059L3.865 1.51188L4.54547 12.0777L5.72938 14.3032L21.8561 13.5579L23.1171 12.2104V4.92013L4.81876 4.63922ZM22.3665 11.8953L21.5238 12.796L6.15379 13.5061L5.28812 11.9367L4.86872 5.41769L22.3665 5.6872V11.8953Z" fill="white"/>
</g>
</svg>
