<svg xmlns="http://www.w3.org/2000/svg" xmlns:xlink="http://www.w3.org/1999/xlink" width="48.83" height="48.83" viewBox="0 0 48.83 48.83">
  <defs>
    <filter id="Rectangle_37" x="0" y="0" width="48.83" height="48.83" filterUnits="userSpaceOnUse">
      <feOffset dy="1" input="SourceAlpha"/>
      <feGaussianBlur stdDeviation="1.5" result="blur"/>
      <feFlood flood-opacity="0.451"/>
      <feComposite operator="in" in2="blur"/>
      <feComposite in="SourceGraphic"/>
    </filter>
  </defs>
  <g id="Group_30" data-name="Group 30" transform="translate(-1231.413 -403.421)">
    <g transform="matrix(1, 0, 0, 1, 1231.41, 403.42)" filter="url(#Rectangle_37)">
      <rect id="Rectangle_37-2" data-name="Rectangle 37" width="39.83" height="39.83" rx="2" transform="translate(4.5 3.5)" fill="#fff"/>
    </g>
    <path id="Path_49" data-name="Path 49" d="M1260.531,417.5c.289,0,.6.016.927.046,2.007.187,4.326,1.945,4.609,5.314v1.121c-.263,3.224-2.806,7.2-10.239,12.191-7.433-4.989-9.976-8.966-10.239-12.191V422.86c.282-3.368,2.6-5.127,4.609-5.314.329-.03.637-.045.927-.045,2.317,0,3.43.958,4.7,2.41,1.273-1.452,2.384-2.411,4.7-2.411" fill="none" stroke="#000" stroke-linecap="round" stroke-miterlimit="10" stroke-width="1"/>
  </g>
</svg>
