<svg width="102" height="41" viewBox="0 0 102 41" fill="none" xmlns="http://www.w3.org/2000/svg">
<path fill-rule="evenodd" clip-rule="evenodd" d="M73.0504 34.4764C73.4704 32.0324 73.8953 29.6064 74.3203 27.2164C74.7363 24.8534 75.1653 22.5165 75.5953 20.2045C75.1613 17.9985 74.728 15.7588 74.2953 13.4855C73.8614 11.1861 73.436 8.86042 73.0193 6.50842C74.368 6.77509 75.7177 7.06676 77.0684 7.38342C77.3044 8.92276 77.54 10.4444 77.7753 11.9484C78.0107 13.4524 78.2496 14.9338 78.4923 16.3925C78.6863 14.9715 78.8923 13.5705 79.0923 12.1735C79.2853 10.7955 79.4993 9.42843 79.7053 8.07343C81.0623 8.47343 82.4264 8.88743 83.7874 9.35443C83.3874 11.0544 82.9803 12.8064 82.5983 14.5994C82.2083 16.4324 81.8173 18.3165 81.4313 20.2355C81.9243 22.2425 82.4093 24.2015 82.9113 26.0925C83.4013 27.9245 83.9033 29.7035 84.4003 31.4255C83.0283 31.8921 81.658 32.3368 80.2893 32.7595C79.9893 31.4125 79.6754 30.0594 79.3834 28.6724C79.0887 27.2724 78.7923 25.8528 78.4943 24.4135C78.2633 25.9135 78.0273 27.4205 77.7943 28.9465C77.5613 30.4725 77.3264 32.0374 77.0944 33.6044C75.7474 33.9174 74.3944 34.2174 73.0474 34.4794L73.0504 34.4764ZM39.6724 31.3154V20.7025C39.6724 17.1691 39.6696 13.6335 39.6643 10.0955V10.0255C39.6643 9.77945 39.6513 9.45442 39.6303 9.04742C39.61 8.61034 39.5453 8.17646 39.4373 7.75244C39.2689 7.10104 38.9379 6.50307 38.4753 6.01447C38.172 5.74081 37.8076 5.54357 37.4125 5.43921C37.0175 5.33484 36.6033 5.32634 36.2043 5.41443C35.7633 5.45943 35.3194 5.50845 34.8864 5.56445C34.4534 5.62045 34.0023 5.67848 33.5643 5.74048C32.6942 5.80306 31.8821 6.20013 31.2983 6.84845C30.8552 7.38932 30.529 8.01618 30.3403 8.68945C30.2312 9.09276 30.1641 9.50632 30.1403 9.92346C30.1183 10.3015 30.1063 10.6044 30.1063 10.8304V30.4304C30.1063 32.3514 30.4363 33.5854 31.0883 34.1454C31.4079 34.484 31.791 34.7562 32.2159 34.9465C32.6407 35.1368 33.099 35.2414 33.5643 35.2545C34.4413 35.3795 35.3243 35.4914 36.2043 35.5994C36.6285 35.719 37.0751 35.7361 37.5071 35.6492C37.9392 35.5622 38.3444 35.3738 38.6893 35.0994C39.3473 34.6714 39.6683 33.3995 39.6683 31.3135L39.6724 31.3154ZM34.8864 8.31543C34.9971 8.30364 35.109 8.31793 35.2132 8.35718C35.3174 8.39642 35.4109 8.45954 35.4863 8.54144C35.6587 8.70414 35.7654 8.92438 35.7863 9.16046V9.27142C35.7903 13.0161 35.7903 16.7634 35.7863 20.5134V31.8005C35.7888 31.8187 35.7888 31.8372 35.7863 31.8555C35.773 32.0863 35.6809 32.3055 35.5253 32.4764C35.4467 32.5626 35.3478 32.6278 35.2376 32.6661C35.1274 32.7043 35.0094 32.7144 34.8943 32.6954C34.7689 32.6861 34.6467 32.6507 34.5358 32.5912C34.4248 32.5318 34.3276 32.4498 34.2503 32.3505C34.104 32.1545 34.0135 31.9227 33.9883 31.6794V20.5074C33.9883 16.8168 33.9883 13.1244 33.9883 9.43042V9.33044C34.0111 9.08319 34.1132 8.84994 34.2794 8.66547C34.43 8.47472 34.6486 8.34966 34.8893 8.31647L34.8864 8.31543ZM42.6393 36.1794V20.5004C42.6393 15.2791 42.6363 10.0555 42.6303 4.82947C44.5303 4.72947 46.4303 4.65147 48.3383 4.59747C48.805 8.15614 49.2773 11.7198 49.7553 15.2885C50.2333 18.8571 50.7 22.4238 51.1553 25.9885C51.6887 22.4158 52.224 18.8411 52.7614 15.2645C53.2887 11.6991 53.822 8.13245 54.3613 4.56445C56.1553 4.62045 57.9453 4.69943 59.7443 4.80743C59.7483 10.0294 59.7553 15.2528 59.7653 20.4775V36.1505C58.4653 36.2275 57.1733 36.2965 55.8813 36.3505V26.4915C55.8813 23.2055 55.8813 19.9194 55.8813 16.6334C55.4653 19.9174 55.0354 23.2124 54.6234 26.5084C54.2114 29.8044 53.7863 33.1084 53.3743 36.4194C51.987 36.4354 50.6047 36.4381 49.2274 36.4274C48.7774 33.1254 48.3253 29.8255 47.8713 26.5275C47.4173 23.2295 46.968 19.9411 46.5233 16.6625V36.3624C45.2233 36.3184 43.9313 36.2545 42.6353 36.1785L42.6393 36.1794ZM17.5923 31.4395V9.55945C19.6053 8.86845 21.6283 8.23142 23.6533 7.65942C23.8473 7.60342 24.0533 7.55943 24.2673 7.51343C24.4951 7.46734 24.727 7.44493 24.9594 7.44647C25.5172 7.4497 26.0532 7.66406 26.4594 8.04645C26.7343 8.40389 26.936 8.81206 27.053 9.24756C27.1701 9.68306 27.2001 10.1374 27.1414 10.5845V30.2844C27.1414 30.4844 27.1284 30.7354 27.1074 31.0474C27.0826 31.3722 27.0177 31.6926 26.9143 32.0015C26.7273 32.5038 26.3819 32.9317 25.9304 33.2205C25.5701 33.3901 25.1787 33.4839 24.7807 33.4962C24.3827 33.5084 23.9863 33.4387 23.6163 33.2914C21.6043 32.7554 19.5953 32.1154 17.5903 31.4374L17.5923 31.4395ZM21.4683 30.4304C21.6483 30.4764 21.8383 30.5164 22.0233 30.5594C22.171 30.6021 22.3265 30.6107 22.4779 30.5844C22.6293 30.558 22.7728 30.4975 22.8973 30.4075C23.0278 30.292 23.1286 30.1469 23.1914 29.9844C23.2542 29.8219 23.2772 29.6467 23.2584 29.4734V11.3605C23.2584 11.3005 23.2543 11.2275 23.2463 11.1415C23.238 11.0562 23.2206 10.972 23.1943 10.8904C23.13 10.7016 23.0048 10.5394 22.8383 10.4294C22.7065 10.3665 22.5634 10.3305 22.4175 10.3234C22.2715 10.3164 22.1256 10.3385 21.9883 10.3884C21.8163 10.4294 21.6403 10.4675 21.4683 10.5115V30.4224V30.4304ZM62.2844 35.9595C62.2844 30.8008 62.2844 25.6434 62.2844 20.4874C62.2844 15.3314 62.2773 10.1728 62.2633 5.01147C65.2986 5.32214 68.332 5.71943 71.3633 6.20343V8.82745C69.6253 8.58745 67.8883 8.37578 66.1523 8.19244C66.1523 9.90911 66.154 11.6251 66.1573 13.3405C66.1607 15.0558 66.1633 16.7708 66.1653 18.4855C67.9043 18.5165 69.6383 18.5494 71.3853 18.5854C71.3853 19.4614 71.3853 20.3324 71.3853 21.2034C69.6423 21.2144 67.9043 21.2295 66.1653 21.2385V32.7604C67.9267 32.5758 69.6897 32.3641 71.4543 32.1254V34.7755C68.3937 35.2581 65.337 35.6514 62.2844 35.9554V35.9595Z" fill="#1D276D"/>
<path fill-rule="evenodd" clip-rule="evenodd" d="M51.0001 0.799805C23.1551 0.799805 0.578125 9.61782 0.578125 20.4998C0.578125 31.3818 23.1551 40.1998 51.0001 40.1998C78.8451 40.1998 101.422 31.3808 101.422 20.4998C101.422 9.61882 78.8491 0.799805 51.0001 0.799805ZM51.0001 38.3758C24.1691 38.3758 2.41913 30.3708 2.41913 20.4988C2.41913 10.6268 24.1691 2.62183 51.0001 2.62183C77.8311 2.62183 99.5842 10.6218 99.5842 20.4988C99.5842 30.3758 77.8311 38.3758 51.0001 38.3758Z" fill="#1D276D"/>
</svg>
