<svg width="102" height="41" viewBox="0 0 102 41" fill="none" xmlns="http://www.w3.org/2000/svg">
<path fill-rule="evenodd" clip-rule="evenodd" d="M32.451 5.75848L35.413 5.3385V35.6695L31.143 35.0515V17.6505L28.384 34.5105L23.827 33.4585L20.85 17.6585V32.5945L18.709 31.8605L16.578 31.0295V9.97546L19.718 8.78546L22.859 7.80347L25.942 24.5335L27.714 15.3985L29.494 6.2605L32.451 5.75848ZM54.934 20.2425L57.548 4.65247L55.306 4.5365L53.066 4.47351L52.385 10.6085L51.704 16.7355L50.158 4.43549L47.934 4.4505L45.706 4.50647L47.106 12.3735L48.506 20.2415L45.706 36.4875L47.934 36.5505L50.156 36.5605L50.928 30.3235L51.702 24.0855L53.67 36.4995L55.93 36.4265L58.195 36.2955L56.559 28.2685L54.934 20.2425ZM38.934 4.95349V36.0535L41.065 36.2275L43.205 36.3705V4.63049L41.065 4.7655L38.934 4.95349ZM70.934 8.61951C70.962 8.93451 70.975 9.18651 70.975 9.36951V32.4155C70.9627 32.6116 70.9376 32.8067 70.9 32.9995C70.8021 33.6089 70.5045 34.1686 70.054 34.5905C69.567 35.0685 68.584 35.1325 67.167 35.3335L64.267 35.7465C64.2016 35.7296 64.1345 35.7202 64.067 35.7185H63.905C63.0818 35.7109 62.2718 35.5105 61.54 35.1335C60.821 34.7645 60.465 33.7865 60.465 32.2105V8.99646C60.465 8.81046 60.471 8.56246 60.498 8.25946C60.5232 7.92097 60.5959 7.58771 60.714 7.26947C60.9936 6.58393 61.4965 6.01288 62.1412 5.6488C62.7858 5.28473 63.5345 5.14896 64.266 5.26349L67.166 5.66852C68.0291 5.67475 68.8787 5.88403 69.646 6.27948C70.1248 6.62471 70.4972 7.09727 70.721 7.64349C70.8348 7.9576 70.9038 8.28617 70.926 8.61951H70.934ZM66.703 8.6955C66.7071 8.59558 66.6884 8.49606 66.6484 8.40442C66.6084 8.31278 66.548 8.23142 66.472 8.1665C66.3214 8.04003 66.1411 7.95399 65.948 7.9165C65.9231 7.89585 65.8913 7.88513 65.859 7.88647H65.735C65.4896 7.88099 65.2499 7.96009 65.056 8.11047C64.9704 8.16735 64.8972 8.24097 64.8408 8.3269C64.7844 8.41284 64.7461 8.5093 64.728 8.61047C64.7265 8.62477 64.7265 8.63921 64.728 8.6535V32.3035C64.7265 32.3178 64.7265 32.3322 64.728 32.3465C64.7595 32.5428 64.8619 32.7208 65.016 32.8465C65.2202 33.0064 65.4762 33.0855 65.735 33.0685C65.9856 33.0818 66.2331 33.0075 66.435 32.8585C66.5263 32.7886 66.5989 32.6973 66.6465 32.5927C66.6941 32.488 66.7153 32.3732 66.708 32.2585L66.703 8.6955ZM81.16 9.0235V19.4925L78.508 8.12952L76.369 7.54248L74.238 6.99847V33.9885L76.369 33.4605L78.508 32.8755V22.5865L81.16 31.9865L83.298 31.1785L85.43 30.2425V10.7575L83.298 9.8125L81.16 9.0235ZM101.068 20.5015C101.068 31.3805 78.652 40.1955 51.008 40.1955C23.364 40.1955 0.947998 31.3805 0.947998 20.5015C0.947998 9.62247 23.364 0.801514 51.008 0.801514C78.652 0.801514 101.06 9.62346 101.06 20.5015H101.068ZM99.24 20.5015C99.24 10.6285 77.646 2.62451 51.008 2.62451C24.37 2.62451 2.77399 10.6245 2.77399 20.5015C2.77399 30.3785 24.368 38.3755 51.008 38.3755C77.648 38.3755 99.234 30.3725 99.234 20.5015H99.24Z" fill="#1D276D"/>
</svg>
