<svg width="108" height="25" viewBox="0 0 108 25" fill="none" xmlns="http://www.w3.org/2000/svg">
<path d="M89.8555 22.3859C89.9325 22.2999 90.0075 22.212 90.0805 22.119C90.1315 22.055 90.1805 21.9899 90.2295 21.9189C90.3015 21.8189 90.3705 21.719 90.4385 21.619C90.4805 21.553 90.5235 21.4899 90.5635 21.4189C90.6415 21.2909 90.7145 21.16 90.7865 21.025C90.8115 20.978 90.8386 20.9329 90.8636 20.8849C91.0463 20.5281 91.2079 20.1608 91.3475 19.785C91.3575 19.759 91.3645 19.7319 91.3735 19.7059C91.4569 19.4799 91.5326 19.252 91.6006 19.022H87.6305C87.4883 19.7378 87.0876 20.3761 86.5047 20.8152C85.9219 21.2544 85.1978 21.4636 84.4706 21.403C84.2636 21.403 84.0705 21.389 83.8855 21.371C83.7985 21.363 83.7115 21.355 83.6275 21.342C83.4985 21.324 83.3745 21.2989 83.2555 21.2709C83.1785 21.2539 83.0996 21.238 83.0276 21.217C82.9134 21.1819 82.8011 21.1404 82.6915 21.093C82.6325 21.068 82.5686 21.048 82.5126 21.02C82.3607 20.9467 82.2166 20.8583 82.0826 20.756C81.5831 20.4 81.2048 19.8995 80.9985 19.322C80.8205 18.6677 80.7047 17.998 80.6526 17.322H91.7865V16.5909C91.7865 16.2029 91.7716 15.8339 91.7466 15.4739C91.7396 15.3649 91.7275 15.26 91.7185 15.153C91.6955 14.902 91.6676 14.6579 91.6326 14.4219C91.6166 14.3149 91.5995 14.209 91.5815 14.105C91.5375 13.858 91.4815 13.62 91.4275 13.39C91.4095 13.321 91.3945 13.248 91.3755 13.181C91.3655 13.143 91.3585 13.103 91.3475 13.067C91.2685 12.806 91.1826 12.5579 91.0856 12.3199C90.7101 11.2935 90.0842 10.377 89.2646 9.65393C88.5517 9.0486 87.7198 8.5996 86.8226 8.33594C85.9576 8.08771 85.0623 7.96118 84.1625 7.95996H84.0826C83.8696 7.95996 83.6745 7.98094 83.4715 7.99194C83.2965 8.00194 83.1146 8.00296 82.9476 8.01996C82.7806 8.03696 82.6045 8.07298 82.4325 8.09998C82.2605 8.12698 82.0555 8.14996 81.8815 8.18896C81.7235 8.22496 81.5815 8.27597 81.4335 8.31897C81.2645 8.36697 81.0865 8.40794 80.9275 8.46594C80.6363 8.57304 80.3539 8.70245 80.0826 8.85297C79.11 9.36481 78.2892 10.1236 77.7026 11.053C77.2075 11.8451 76.8513 12.7159 76.6495 13.6279C76.4813 14.3668 76.3909 15.1213 76.3796 15.879C76.3472 17.2369 76.5502 18.5903 76.9795 19.879C77.2914 20.8648 77.8432 21.7578 78.5853 22.4777C79.3274 23.1977 80.2367 23.7221 81.2315 24.004C81.6427 24.1271 82.0616 24.2226 82.4855 24.29C82.5455 24.301 82.6045 24.3129 82.6645 24.3229C83.0915 24.385 83.5214 24.4241 83.9526 24.4399C83.9976 24.4399 84.0375 24.4499 84.0815 24.4509L84.4695 24.457C86.0079 24.4693 87.5196 24.0539 88.8356 23.257C88.9917 23.1626 89.1407 23.057 89.2815 22.941C89.3325 22.9 89.3815 22.854 89.4295 22.811C89.5205 22.73 89.6095 22.649 89.6955 22.561C89.7515 22.504 89.8035 22.4449 89.8555 22.3859ZM86.2735 12.131C86.6194 12.4537 86.8966 12.8428 87.0887 13.2751C87.2808 13.7074 87.3838 14.174 87.3915 14.647H80.7735C80.8263 13.7308 81.1883 12.8596 81.8005 12.176C81.8265 12.15 81.8596 12.132 81.8876 12.108C82.0004 12 82.1229 11.9026 82.2535 11.817C82.3526 11.7609 82.4552 11.7112 82.5605 11.668C82.6365 11.633 82.7046 11.589 82.7856 11.559C82.9241 11.5143 83.0654 11.4785 83.2085 11.452C83.2725 11.438 83.3295 11.4149 83.3965 11.4039C83.5205 11.3839 83.6585 11.383 83.7905 11.374C83.8905 11.367 83.9905 11.351 84.0965 11.351C84.8918 11.3443 85.6635 11.6208 86.2735 12.131Z" fill="#1D276D"/>
<path d="M13.3587 16.115C12.4257 15.4232 11.3564 14.9375 10.2216 14.69C8.99264 14.399 7.83865 14.11 6.75765 13.831C5.67665 13.552 5.13363 13.1441 5.13363 12.6131C5.13363 11.5897 5.95365 11.079 7.59365 11.081C8.30562 11.0004 9.0214 11.1958 9.59365 11.627C9.97681 12.0461 10.2194 12.5743 10.2876 13.138H14.2016C13.9536 9.68736 11.675 7.96268 7.36562 7.96402C6.11785 7.90901 4.87725 8.17957 3.76565 8.74905C2.92566 9.19575 2.24135 9.88732 1.80361 10.732C1.42164 11.5009 1.22183 12.3475 1.21963 13.206C1.17862 13.7655 1.27266 14.3266 1.49386 14.8421C1.71505 15.3576 2.05692 15.8123 2.49062 16.1681C3.38736 16.843 4.4181 17.3182 5.51363 17.562C6.69163 17.847 7.83862 18.132 8.96462 18.425C10.0906 18.718 10.6566 19.152 10.6566 19.716C10.6469 19.9326 10.5896 20.1445 10.4889 20.3365C10.3881 20.5285 10.2464 20.696 10.0736 20.8271C9.49908 21.2206 8.80511 21.401 8.11166 21.3371C5.90099 21.3371 4.79432 20.5727 4.79165 19.044H0.676659C0.637176 19.868 0.820017 20.6875 1.20602 21.4166C1.59202 22.1457 2.16694 22.7575 2.87063 23.188C4.42763 24.0713 6.19737 24.5099 7.98666 24.456C8.99494 24.4503 9.99739 24.3029 10.9646 24.018C11.9696 23.7237 12.8709 23.1514 13.5647 22.367C14.3317 21.4442 14.7208 20.2651 14.6536 19.067C14.6916 18.5071 14.5937 17.9462 14.3682 17.4322C14.1427 16.9182 13.7964 16.4663 13.3587 16.115Z" fill="#1D276D"/>
<path d="M45.4156 8.37109H41.8896V24.0421H45.4156V8.37109Z" fill="#1D276D"/>
<path d="M45.4156 2.67969H41.8896V6.50469H45.4156V2.67969Z" fill="#1D276D"/>
<path d="M37.3296 8.56333C35.0006 7.36333 29.5677 7.16335 28.0957 9.79135C26.6247 7.16035 21.1897 7.36433 18.8617 8.56333C18.0836 8.95989 17.4424 9.58066 17.0207 10.3454C16.552 11.2226 16.321 12.2072 16.3507 13.2013V24.1014H20.0816V14.5263C20.0754 14.1154 20.1512 13.7072 20.3046 13.3259C20.458 12.9446 20.686 12.5977 20.9752 12.3056C21.2643 12.0134 21.6088 11.7819 21.9886 11.6246C22.3683 11.4673 22.7756 11.3873 23.1867 11.3894C23.6176 11.3635 24.0491 11.4303 24.452 11.5852C24.8549 11.7402 25.2199 11.9798 25.5224 12.2878C25.8249 12.5958 26.0579 12.965 26.2056 13.3707C26.3533 13.7764 26.4123 14.209 26.3786 14.6394V24.1014H29.8127V14.6394C29.779 14.2083 29.8383 13.775 29.9865 13.3689C30.1348 12.9627 30.3685 12.593 30.6718 12.2849C30.9752 11.9768 31.3411 11.7374 31.745 11.5829C32.1488 11.4284 32.5811 11.3624 33.0127 11.3894C33.4233 11.388 33.83 11.4684 34.2092 11.6261C34.5884 11.7837 34.9323 12.0153 35.2209 12.3073C35.5095 12.5994 35.7371 12.9461 35.8902 13.3271C36.0433 13.7081 36.1189 14.1158 36.1126 14.5263V24.1014H39.8476V13.2013C39.8768 12.2072 39.6459 11.2228 39.1776 10.3454C38.7525 9.58088 38.1091 8.96042 37.3296 8.56333Z" fill="#1D276D"/>
<path d="M101.684 16.063L107.138 8.375H102.371L98.9095 13.275L95.8005 8.375H91.1216L96.5596 16.063L90.9045 24.046H95.6855L99.0535 19.086L102.429 24.046H107.329L101.684 16.063Z" fill="#1D276D"/>
<path d="M53.0786 8.15003C48.9266 8.33303 47.1475 10.782 47.1125 14.016V24.043H51.0215V15.443C51.0215 12.686 52.0436 11.705 54.6306 11.705C55.1596 11.705 58.2866 11.726 58.5106 11.764V8.154C57.5386 8.052 53.9636 8.17203 53.0786 8.15003Z" fill="#1D276D"/>
<path d="M75.2495 2.31921L73.2945 0.408203L71.0695 2.31921V9.04419C69.4795 8.14519 67.6376 7.79497 65.8286 8.04767C64.0196 8.30036 62.3441 9.1419 61.0613 10.4422C59.7785 11.7425 58.9598 13.4291 58.7316 15.2414C58.5035 17.0537 58.8786 18.8906 59.799 20.4683C60.7195 22.046 62.134 23.2766 63.8239 23.9698C65.5138 24.6631 67.385 24.7803 69.1483 24.3035C70.9115 23.8267 72.4686 22.7824 73.5789 21.332C74.6891 19.8815 75.2906 18.1057 75.2905 16.2792C75.2905 15.9902 75.2765 15.7022 75.2495 15.4202V2.31921ZM66.9795 21.4792C64.4795 21.4792 62.4475 19.1432 62.4475 16.2792C62.4475 13.4152 64.4815 11.0792 66.9795 11.0792C69.4775 11.0792 71.5155 13.4162 71.5155 16.2792C71.5155 19.1422 69.4775 21.4792 66.9795 21.4792Z" fill="#1D276D"/>
</svg>
