<svg width="17" height="17" viewBox="0 0 17 17" fill="none" xmlns="http://www.w3.org/2000/svg">
<path d="M16.5188 14.797L11.4268 9.70396C12.3076 8.39263 12.6615 6.79728 12.4177 5.23648C12.1739 3.67568 11.3504 2.26426 10.1115 1.28403C8.87267 0.303813 7.30969 -0.173076 5.73465 -0.0514229C4.15961 0.07023 2.6884 0.781476 1.61478 1.94031C0.541156 3.09914 -0.0558853 4.62028 -0.057127 6.20001C-0.0583687 7.77974 0.536296 9.30182 1.6081 10.4623C2.67989 11.6228 4.14998 12.3364 5.72482 12.4605C7.29967 12.5847 8.86338 12.1102 10.1038 11.132L15.1448 16.172L16.5188 14.797ZM6.23975 10.537C5.38929 10.537 4.55793 10.2848 3.8508 9.81228C3.14367 9.33979 2.59255 8.66822 2.26709 7.8825C1.94163 7.09678 1.85645 6.23219 2.02237 5.39807C2.18829 4.56395 2.59782 3.79777 3.19919 3.1964C3.80056 2.59504 4.56676 2.1855 5.40088 2.01958C6.235 1.85367 7.09956 1.93882 7.88529 2.26428C8.67101 2.58974 9.34261 3.14088 9.8151 3.84801C10.2876 4.55514 10.5398 5.3865 10.5398 6.23696C10.5398 6.80164 10.4285 7.3608 10.2124 7.8825C9.99634 8.4042 9.67963 8.87823 9.28034 9.27752C8.88104 9.67681 8.40699 9.99354 7.88529 10.2096C7.36359 10.4257 6.80443 10.537 6.23975 10.537Z" fill="#505050"/>
</svg>
