<svg width="99" height="21" viewBox="0 0 99 21" fill="none" xmlns="http://www.w3.org/2000/svg">
<path fill-rule="evenodd" clip-rule="evenodd" d="M98.1655 12.214C94.8055 13.351 92.7505 14.028 89.6985 14.028C84.8315 14.028 81.3695 11.928 81.3695 8.97601C81.3695 6.05101 84.8695 3.97601 89.8365 3.97601C92.6053 4.01801 95.3403 4.59175 97.8925 5.66601V1.99401C95.1917 0.963259 92.3154 0.470667 89.4255 0.544C80.4785 0.544 75.3715 4.65298 75.3715 9.04998C75.3715 13.305 79.8945 17.46 88.9795 17.46C92.1187 17.5093 95.2378 16.9517 98.1655 15.818V12.218V12.214ZM72.7505 0.762994H66.6795V10.839L53.6795 0.762994H48.1095V17.244H54.1795V6.67999L67.6415 17.241H72.7485V0.762994H72.7505ZM45.4185 14.225H33.5385V10.26H44.6385V7.23901H33.5385V3.78399H45.1695V0.762994H27.4695V17.244H45.4155V14.225H45.4185ZM23.8265 1.89898C20.8576 0.97307 17.7624 0.516234 14.6525 0.544976C6.36553 0.544976 0.634521 4.00099 0.634521 9.02899C0.634521 13.957 6.39854 17.461 14.5165 17.461C18.2675 17.461 22.5655 16.52 24.3025 15.239V8.49304H15.1295V11.514H18.5065V13.448C17.2636 13.8565 15.9607 14.0526 14.6525 14.028C9.84253 14.028 6.60352 12.095 6.60352 9.16998C6.60352 6.72898 8.81952 3.97003 15.1295 3.97003C18.0942 3.98895 21.0348 4.50373 23.8295 5.49304V1.893L23.8265 1.89898ZM82.5325 18.558H93.2925V20.458H82.5325V18.558Z" fill="#1D276D"/>
</svg>
