<svg width="31" height="20" viewBox="0 0 31 20" fill="none" xmlns="http://www.w3.org/2000/svg">
<path d="M29.6544 4.14104H26.2863V4.65347L23.067 1H7.58875L4.36938 4.6548V4.14104H1V6.23328H2.9781L1.71557 8.41584V9.88943H1V19.4931H6.23995V17.3504H24.4158V19.4945H29.6544V12.907L18.901 12.8207V12.2963L17.3757 12.2844C17.29 12.2833 17.2081 12.2487 17.1478 12.1878C17.0874 12.127 17.0534 12.0448 17.053 11.9591V11.7985C17.0529 11.7562 17.0611 11.7143 17.0773 11.6752C17.0935 11.6361 17.1173 11.6007 17.1473 11.5709C17.1773 11.5411 17.213 11.5176 17.2522 11.5018C17.2914 11.4859 17.3334 11.478 17.3757 11.4786L18.901 11.4892V10.7577L16.7158 10.7404C16.6301 10.7387 16.5485 10.7036 16.4882 10.6426C16.428 10.5816 16.3939 10.4996 16.3932 10.4138V10.2532C16.3934 10.211 16.4019 10.1693 16.4182 10.1304C16.4345 10.0915 16.4583 10.0561 16.4883 10.0264C16.5182 9.99669 16.5537 9.97319 16.5928 9.95721C16.6318 9.94122 16.6736 9.93309 16.7158 9.93326L18.901 9.95182L23.9139 9.99164V8.36803H23.1931C23.1074 8.36698 23.0255 8.33229 22.9652 8.27144C22.9048 8.2106 22.8708 8.12848 22.8705 8.04278V7.88214C22.8705 7.8399 22.8788 7.79809 22.8951 7.7591C22.9113 7.72011 22.9351 7.68472 22.9651 7.65498C22.9951 7.62523 23.0307 7.6017 23.0698 7.58578C23.109 7.56986 23.1508 7.56185 23.1931 7.5622L23.9139 7.56884V7.02984L22.4138 7.01922C22.3279 7.01784 22.2459 6.98289 22.1853 6.92187C22.1248 6.86084 22.0906 6.77858 22.0899 6.69264V6.532C22.09 6.48969 22.0986 6.44783 22.1149 6.40883C22.1313 6.36983 22.1553 6.33448 22.1854 6.30475C22.2155 6.27503 22.2511 6.25154 22.2903 6.23563C22.3295 6.21973 22.3715 6.21171 22.4138 6.21206L23.9139 6.22401L27.6882 6.25455L27.679 6.2373H29.6557L29.6544 4.14104ZM3.68568 11.991L3.43346 9.4686L9.85361 11.0617V11.991H3.68568ZM23.6896 13.5668L23.0404 15.6432H7.61397L6.96613 13.5668H23.6896ZM21.9491 5.65713H6.52272L8.70659 2.47096H21.9491L24.133 5.65713H21.9491Z" stroke="#1E0E00" stroke-width="0.752735" stroke-miterlimit="10"/>
</svg>
