<svg width="17.723145" height="18.917969" viewBox="0 0 17.7231 18.918" fill="none" xmlns="http://www.w3.org/2000/svg" xmlns:xlink="http://www.w3.org/1999/xlink">
	<desc>
			Created with Pixso.
	</desc>
	<defs/>
	<path id="показать-еще-стрелка" d="M14.9307 15.9725C14.8589 15.8627 14.7656 15.7682 14.6572 15.6943C14.5483 15.6205 14.4263 15.5688 14.2974 15.5423C14.1689 15.5157 14.0361 15.5147 13.9072 15.5394C13.7783 15.564 13.6553 15.6139 13.5454 15.686L13.4297 15.7639C13.3525 15.8155 13.2764 15.8678 13.1929 15.9159C12.0669 16.5708 10.7891 16.9195 9.48633 16.9272C8.18359 16.9349 6.90186 16.6014 5.76807 15.9599C4.63428 15.3184 3.68848 14.3912 3.02441 13.2706C2.36035 12.1499 2.00098 10.8749 1.98291 9.57245C1.96436 8.26996 2.2876 6.98535 2.91992 5.84644C3.55176 4.70752 4.47168 3.75403 5.58643 3.08087C6.70166 2.40765 7.97363 2.03815 9.27637 2.00922C10.5786 1.98022 11.8657 2.29279 13.0098 2.91571L10.8994 4.34973L17.7231 7.64624L17.1675 0.0886841L14.8335 1.67474C13.4399 0.713013 11.8145 0.142761 10.1255 0.0234985C8.43701 -0.0957642 6.74707 0.240356 5.23291 0.996826C3.71826 1.75323 2.43457 2.90228 1.51562 4.32397C0.59668 5.74573 0.0761719 7.388 0.0078125 9.07953C-0.0600586 10.7711 0.327637 12.4498 1.12939 13.9406C1.93164 15.4315 3.11914 16.6797 4.56787 17.5551C6.01709 18.4305 7.67432 18.901 9.36719 18.9175C11.0601 18.9341 12.7261 18.496 14.1919 17.649C14.3145 17.579 14.4297 17.5019 14.5454 17.4241L14.645 17.3584C14.7549 17.2862 14.8496 17.1931 14.9233 17.0843C14.9971 16.9756 15.0488 16.8533 15.0752 16.7246C15.1021 16.5959 15.1025 16.4632 15.0781 16.3342C15.0532 16.2051 15.0034 16.0822 14.9307 15.9725Z" fill="#FF0000" fill-opacity="1.000000" fill-rule="nonzero"/>
</svg>
