<svg width="19" height="20" viewBox="0 0 19 20" fill="none" xmlns="http://www.w3.org/2000/svg">
<g id="viber-top">
<path id="viber-top_2" d="M9.50201 8.67117e-06C7.76126 -0.00240535 6.05333 0.499264 4.56529 1.45012C3.07724 2.40098 1.86634 3.76439 1.06507 5.39114C0.263802 7.0179 -0.0969487 8.84532 0.0222932 10.6734C0.141535 12.5016 0.736141 14.2599 1.74111 15.7561L1.7177 15.7335L1.00059 20L4.74251 18.6612L4.70931 18.6283C5.96862 19.4036 7.3807 19.8631 8.836 19.9711C10.2913 20.0791 11.7507 19.8327 13.1009 19.251C14.4511 18.6692 15.6557 17.7679 16.6215 16.6168C17.5872 15.4657 18.288 14.0959 18.6696 12.6136C19.0511 11.1312 19.103 9.57635 18.8213 8.0695C18.5397 6.56266 17.932 5.14439 17.0454 3.92475C16.1589 2.70511 15.0172 1.71689 13.7092 1.03678C12.4011 0.356677 10.9619 0.00296589 9.50296 0.00309838L9.50201 8.67117e-06ZM12.6168 16.6325C10.337 15.7402 8.26772 14.3388 6.55137 12.5246C6.02925 11.9167 5.53936 11.279 5.08393 10.6143C4.73859 9.95418 4.2485 9.14989 3.90023 8.34149C3.62142 7.68035 2.99436 6.57845 3.34361 5.6959C3.72838 4.96108 4.34345 4.38962 5.08393 4.0791C5.27924 4.00105 5.49536 4.00315 5.68927 4.08499C5.88318 4.16683 6.04077 4.32242 6.13077 4.52089C6.75687 5.40344 8.22334 6.87092 7.45538 7.82556C6.82829 8.55981 6.1307 8.34046 6.89769 10.0283C7.52184 11.4227 8.98735 13.0395 10.4528 13.2578C11.9183 13.4761 11.0095 10.3208 14.6341 13.5513C14.9794 13.8438 15.3286 13.919 15.3286 14.5811C15.3335 15.1599 14.1499 17.2144 12.6208 16.6284L12.6168 16.6325ZM9.68973 5.55173L9.76019 5.03682C10.1799 4.74333 12.1277 5.40447 12.9622 6.28393C13.3994 6.7366 13.7285 7.29183 13.9227 7.90416C14.1169 8.5165 14.1706 9.16854 14.0794 9.80692C13.3153 10.0294 13.5903 9.15092 13.3858 8.34252C12.8252 5.76696 10.5947 5.84111 9.68591 5.54761L9.68973 5.55173ZM12.0612 9.29407C11.7785 8.48567 11.9907 7.8997 11.2218 7.53206C10.9439 7.38377 10.3833 7.38377 10.2503 7.23959C9.54886 6.50431 11.571 6.35704 12.2685 7.7545C12.4055 7.89558 13.0365 9.43721 12.0612 9.28995V9.29407ZM15.1252 9.88312C15.128 8.75228 14.8289 7.64335 14.2621 6.68271C13.6953 5.72208 12.8835 4.9484 11.9193 4.44983C11.0319 4.17152 10.1232 3.97444 9.20357 3.86077C9.0627 3.05546 9.82668 3.27481 10.3833 3.34587C11.2141 3.4658 12.0133 3.76158 12.7326 4.21538C13.4518 4.66917 14.0764 5.27159 14.5685 5.98631C15.3314 7.18108 15.7433 8.58572 15.7532 10.0252C15.7512 10.6843 15.1252 10.7585 15.1252 9.879V9.88312Z" fill="#675CAC"/>
</g>
</svg>
