<svg width="32" height="31" viewBox="0 0 32 31" fill="none" xmlns="http://www.w3.org/2000/svg">
<path d="M31.4508 14.9309H29.2477L30.3287 14.5302L29.0602 11.6636L26.9713 12.4378L28.0755 14.9309H27.8713V15.429L24.4498 11.875H7.99964L4.57942 15.429V14.9309H3.8322L4.93506 12.4366L2.84621 11.6636L1.57774 14.5302L2.65875 14.9309H1V16.9645H3.10168L1.75877 19.0863V20.5209H1V29.8598H6.56685V27.7756H25.8839V29.861H31.4508V20.5197H30.692V19.0863L29.3504 16.9645H31.4508V14.9309ZM9.1885 13.3072H23.2636L25.5835 16.4053H6.86727L9.1885 13.3072ZM3.85403 22.5651L3.5857 20.1167L10.4069 21.6675V22.5651H3.85403ZM24.4229 26.1167H8.02789L7.33845 24.0971H25.111L24.4229 26.1167ZM28.598 22.5651H22.0464V21.6675L28.8676 20.1167L28.598 22.5651Z" stroke="#1E0E00" stroke-width="0.752735" stroke-miterlimit="10"/>
<path d="M17.2497 7.84326H14.9978V10.9355H17.2497V7.84326Z" stroke="#1E0E00" stroke-width="0.752735" stroke-miterlimit="10"/>
<path d="M9.81106 7.713L9.23853 10.7617L11.4592 11.1109L12.0317 8.06221L9.81106 7.713Z" stroke="#1E0E00" stroke-width="0.752735" stroke-miterlimit="10"/>
<path d="M5.07181 6.63933L3.29004 10.6592L5.37874 11.4344L7.16052 7.41459L5.07181 6.63933Z" stroke="#1E0E00" stroke-width="0.753001" stroke-miterlimit="10"/>
<path d="M26.8374 6.64092L24.7488 7.41455L26.5263 11.4331L28.6149 10.6594L26.8374 6.64092Z" stroke="#1E0E00" stroke-width="0.752735" stroke-miterlimit="10"/>
<path d="M7.60277 6.41258L9.14342 2.97257H10.7752L10.7072 2.98315L10.1333 6.03077L12.3544 6.38321L13.0156 2.97612H15.003V6.25396H17.2549V2.97612H18.9034L19.562 6.38321L21.7831 6.03077L21.2092 2.98315L21.1771 2.97257H22.651L24.3097 6.4114L26.3986 5.63835L25.2187 2.97376H25.9711V2.00452H25.6052V1H6.64759V2.00452H6.28168V2.97257H6.69251L5.51392 5.63717L7.60277 6.41258Z" stroke="#1E0E00" stroke-width="0.752735" stroke-miterlimit="10"/>
<path d="M22.0944 7.71264L19.874 8.06299L20.4484 11.1114L22.6688 10.7611L22.0944 7.71264Z" stroke="#1E0E00" stroke-width="0.752735" stroke-miterlimit="10"/>
</svg>
