<svg width="31" height="30" viewBox="0 0 31 30" fill="none" xmlns="http://www.w3.org/2000/svg">
<path d="M29.9626 11.9791L18.5534 1L12.497 7.95315L12.0204 7.49445L10.0011 9.44291L10.4459 9.87092L9.7582 10.5341C8.96165 11.3007 11.2185 14.3671 10.5946 16.626C9.76615 19.6554 6.92913 19.8662 3.09775 23.5523C1.03072 25.5429 0.50897 27.5323 1.4542 28.442C2.39944 29.3517 4.46515 28.8496 6.53351 26.859C10.3649 23.1716 10.5826 20.4399 13.7303 19.6439C16.0562 19.0562 19.1959 21.1605 20.0323 20.4718C17.8803 18.3432 11.5916 12.0392 11.9341 11.3556L21.1899 20.215L23.2105 18.2704L22.7127 17.7938L29.9626 11.9791ZM4.94705 25.1724C5.23035 25.3026 5.46327 25.5161 5.61209 25.7821C5.76092 26.0481 5.81795 26.3528 5.7749 26.6521C5.73186 26.9513 5.59099 27.2297 5.37267 27.4468C5.15436 27.6639 4.86993 27.8085 4.56054 27.8597C4.25116 27.9108 3.93288 27.866 3.65177 27.7315C3.37065 27.5971 3.14128 27.38 2.99685 27.1118C2.85242 26.8435 2.80043 26.538 2.84841 26.2394C2.89638 25.9408 3.04183 25.6647 3.2637 25.4509C3.45432 25.2065 3.73487 25.0415 4.04785 24.9897C4.36084 24.9379 4.68254 25.0033 4.94705 25.1724ZM13.2086 8.2879L18.633 2.09754L19.7787 3.20143L15.4177 8.63668L20.6456 4.03706L21.3997 4.76278L17.5697 9.57961L22.4631 5.8935L23.1627 6.56684L19.8345 10.4676L24.1119 7.42801L24.7 7.99273L20.1146 13.3743L25.8736 8.9612L26.4604 9.52596L22.3449 14.2342L27.3499 10.5494L28.8102 11.9471L22.4379 17.169L13.2086 8.2879Z" stroke="#1E0E00" stroke-width="0.752735" stroke-miterlimit="10"/>
</svg>
