<svg width="33" height="31" viewBox="0 0 33 31" fill="none" xmlns="http://www.w3.org/2000/svg">
<path d="M28.0682 17.2972L28.0485 19.1976C28.0382 19.3114 27.9825 19.4169 27.8932 19.4921C27.8038 19.5673 27.6878 19.6064 27.5692 19.601H27.3322C27.2738 19.605 27.2152 19.5978 27.1597 19.5798C27.1042 19.5618 27.0529 19.5334 27.0088 19.4962C26.9648 19.4591 26.9288 19.4139 26.9029 19.3633C26.8771 19.3126 26.8619 19.2576 26.8582 19.2013L26.8766 17.3035H25.7871L25.7597 20.026C25.7493 20.1402 25.6935 20.2461 25.6039 20.3215C25.5144 20.397 25.398 20.4361 25.2791 20.4308H25.0421C24.9839 20.4349 24.9254 20.4279 24.8701 20.4101C24.8148 20.3923 24.7636 20.3641 24.7197 20.3272C24.6757 20.2902 24.6398 20.2453 24.614 20.1949C24.5882 20.1445 24.573 20.0897 24.5694 20.0336L24.5956 17.3111L24.627 14.0552H3.57031V21.1407H29.8084V14.0615H28.8747L28.8433 17.2947L28.0682 17.2972ZM19.21 18.1534H14.1635V17.0463H19.21V18.1534Z" stroke="#1E0E00" stroke-width="0.752735" stroke-miterlimit="10"/>
<path d="M19.1314 7.42349H14.1661V6.31757H19.1419L19.1707 3.33154H3.57031V10.4108H19.1013L19.1314 7.42349Z" stroke="#1E0E00" stroke-width="0.752735" stroke-miterlimit="10"/>
<path d="M1 1V24.0007H2.58964V24.6312H2.94842V30.4053H6.59382V24.6312H6.95261V24.0007H26.4197V24.6312H26.7811V30.4053H30.4252V24.6312H30.784V24.0007H32.3736V1H1ZM30.653 11.2141H28.9023L28.8827 13.2418H30.653V21.9427H2.72712V13.2418H24.6363L24.6572 11.2141H22.2701L22.2623 11.9783C22.2522 12.0925 22.1965 12.1984 22.1068 12.2737C22.0171 12.349 21.9005 12.3878 21.7817 12.3818H21.5447C21.4865 12.3856 21.4281 12.3783 21.3728 12.3603C21.3175 12.3423 21.2665 12.314 21.2226 12.277C21.1787 12.2399 21.1428 12.195 21.117 12.1446C21.0911 12.0942 21.0759 12.0394 21.072 11.9833L21.0799 11.2129H20.2851L20.2681 12.431C20.2583 12.5451 20.2029 12.651 20.1134 12.7263C20.0239 12.8016 19.9075 12.8404 19.7888 12.8345H19.5492C19.491 12.8383 19.4327 12.8309 19.3775 12.8129C19.3223 12.7949 19.2713 12.7666 19.2275 12.7295C19.1837 12.6925 19.148 12.6475 19.1223 12.5972C19.0966 12.5468 19.0814 12.4921 19.0778 12.436L19.0948 11.2116H2.72712V2.51068H30.653V11.2141Z" stroke="#1E0E00" stroke-width="0.752735" stroke-miterlimit="10"/>
</svg>
