<svg width="37" height="32" viewBox="0 0 37 32" fill="none" xmlns="http://www.w3.org/2000/svg">
<path d="M29.6478 16.3683L32.6547 17.7122L35.7387 15.8117L28.1383 9.32827V2.55028H24.0056V5.80827L18.3687 1L1 15.8144L4.08793 17.7149L7.17853 16.3343V27.7278H3.85163V30.6437H32.9733V27.7251H29.6478V16.3683ZM14.5439 16.1456V15.0949H12.2392V25.5925C12.2392 25.7172 12.1909 25.8368 12.1048 25.9251C12.0187 26.0134 11.9019 26.0632 11.7799 26.0635H11.5502C11.4281 26.0635 11.3109 26.0139 11.2245 25.9256C11.1381 25.8372 11.0896 25.7174 11.0896 25.5925V22.4064H10.0368V24.63C10.0368 24.7549 9.98826 24.8748 9.90186 24.9631C9.81547 25.0514 9.69831 25.1011 9.57613 25.1011H9.34645C9.22428 25.1011 9.10711 25.0514 9.02072 24.9631C8.93432 24.8748 8.88578 24.7549 8.88578 24.63V22.4064H8.13969V13.5677L17.6106 5.48655V17.2832C17.6103 17.4079 17.5616 17.5274 17.4752 17.6154C17.3889 17.7035 17.2719 17.7529 17.15 17.7529H16.9203C16.7986 17.7526 16.6819 17.703 16.5959 17.615C16.5098 17.5269 16.4613 17.4077 16.4609 17.2832V15.0949H15.6936V16.1456C15.6938 16.2074 15.682 16.2686 15.659 16.3258C15.636 16.3829 15.6022 16.4349 15.5595 16.4786C15.5169 16.5224 15.4662 16.5571 15.4103 16.5808C15.3545 16.6045 15.2947 16.6167 15.2343 16.6167H15.0046C14.8824 16.6167 14.7652 16.5671 14.6789 16.4787C14.5925 16.3904 14.5439 16.2706 14.5439 16.1456ZM21.9066 27.9057H14.8864V18.4154H21.9066V27.9057Z" stroke="#1E0E00" stroke-width="0.752735" stroke-miterlimit="10"/>
</svg>
