<svg width="25" height="23" viewBox="0 0 25 23" fill="none" xmlns="http://www.w3.org/2000/svg">
<g id="logo-sravnenie">
<path id="Path 47" d="M7.81799 22.2263C7.98805 21.15 8.53373 20.1701 9.35681 19.4627C10.1799 18.7552 11.2265 18.3666 12.3086 18.3666C13.3907 18.3666 14.4373 18.7552 15.2604 19.4627C16.0835 20.1701 16.629 21.15 16.7991 22.2263H7.81799Z" stroke="white" stroke-miterlimit="10" stroke-linecap="round"/>
<g id="Group 24">
<g id="Group 22">
<path id="Path 48" d="M0.5 12.1183C0.516368 13.1463 0.933369 14.1267 1.66101 14.8478C2.38865 15.569 3.36864 15.9732 4.38953 15.9732C5.41042 15.9732 6.3904 15.569 7.11804 14.8478C7.84568 14.1267 8.26268 13.1463 8.27905 12.1183H0.5Z" stroke="white" stroke-linecap="round" stroke-linejoin="round"/>
<path id="Path 49" d="M0.5 12.1182L4.39001 2.4126L8.28003 12.1182H0.5Z" stroke="white" stroke-linecap="round" stroke-linejoin="round"/>
</g>
<g id="Group 23">
<path id="Path 50" d="M16.337 12.1183C16.337 13.1532 16.7469 14.1458 17.4764 14.8776C18.206 15.6095 19.1954 16.0206 20.2271 16.0206C21.2587 16.0206 22.2481 15.6095 22.9777 14.8776C23.7072 14.1458 24.1171 13.1532 24.1171 12.1183H16.337Z" stroke="white" stroke-linecap="round" stroke-linejoin="round"/>
<path id="Path 51" d="M16.337 12.1182L20.2271 2.4126L24.1171 12.1182H16.337Z" stroke="white" stroke-linecap="round" stroke-linejoin="round"/>
</g>
</g>
<path id="Line 1" d="M12.3081 18.366V0" stroke="white" stroke-miterlimit="10"/>
<path id="Line 2" d="M1.51306 2.11267H23.1031" stroke="white" stroke-miterlimit="10"/>
</g>
</svg>
