<svg width="17" height="20" viewBox="0 0 17 20" fill="none" xmlns="http://www.w3.org/2000/svg">
<g id="metka-gorod 1" clip-path="url(#clip0_256_628)">
<path id="metka-gorod" d="M8.10001 0.75C3.60001 0.95 -3.05176e-05 3.45 -3.05176e-05 8.45C-3.05176e-05 13.45 8.10001 19.25 8.10001 19.25C8.10001 19.25 16.2 13.35 16.2 8.45C16.3 3.45 12.7 0.95 8.10001 0.75ZM8.10001 11.15C7.566 11.15 7.04396 10.9916 6.59995 10.695C6.15593 10.3983 5.80986 9.97661 5.6055 9.48325C5.40114 8.98989 5.34769 8.447 5.45187 7.92326C5.55605 7.39951 5.81322 6.91841 6.19083 6.54081C6.56843 6.16321 7.04952 5.90606 7.57327 5.80188C8.09702 5.6977 8.63985 5.75117 9.13321 5.95552C9.62657 6.15988 10.0483 6.50595 10.3449 6.94996C10.6416 7.39397 10.8 7.91599 10.8 8.45C10.8015 8.80498 10.7326 9.15673 10.5974 9.48496C10.4623 9.8132 10.2634 10.1114 10.0124 10.3624C9.76141 10.6134 9.46321 10.8123 9.13498 10.9474C8.80674 11.0826 8.45498 11.1515 8.10001 11.15Z" fill="#5A5A5A"/>
</g>
<defs>
<clipPath id="clip0_256_628">
<rect width="16.202" height="18.5" fill="white" transform="translate(0 0.75)"/>
</clipPath>
</defs>
</svg>
