<svg width="101" height="41" viewBox="0 0 101 41" fill="none" xmlns="http://www.w3.org/2000/svg">
<g id="logo-mikc 2" clip-path="url(#clip0_2_29)">
<g id="logo-mikc">
<g id="Group 15">
<g id="Group 13">
<path id="Path 31" d="M0 33V1H10L15 22L21 1H31V33H25V8L18 33H12L6 8V33H0Z" fill="#FF0000"/>
<path id="Path 32" d="M37 6V1H43V6H37ZM37 33V10H43V33H37Z" fill="#FF0000"/>
<path id="Path 33" d="M49 33V1H55V18L62 10H70L62 18L71 33H64L58 22L55 25V33H49Z" fill="#FF0000"/>
<path id="Path 34" d="M95 21L101 23C100.239 26.136 98.4856 28.9421 96 31C93.774 32.689 91.422 33 88 33C83.766 33 79.725 31.893 77 29C74.275 26.107 73 22.017 73 17C73 11.693 74.26 7.93499 77 4.99999C78.2895 3.51805 79.8656 2.31251 81.6335 1.45601C83.4014 0.599511 85.3243 0.109788 87.2865 0.0163507C89.2487 -0.0770867 91.2095 0.227694 93.0507 0.91233C94.892 1.59696 96.5755 2.64728 98 3.99999C99.45 5.36199 100.274 7.44799 101 9.99999L94 11C93.623 9.34799 93.2 7.95699 92 6.99999C90.8 6.04299 89.712 5.99999 88 5.99999C85.637 5.99999 83.471 6.29999 82 7.99999C80.529 9.69999 80 12.2 80 16C80 20.031 80.55 23.29 82 25C82.7311 25.8959 83.6439 26.6265 84.6782 27.1437C85.7124 27.6608 86.8446 27.9527 88 28C89.711 28 90.767 27.087 92 26C93.5094 24.6974 94.561 22.9448 95 21Z" fill="#FF0000"/>
</g>
<g id="Group 14">
<path id="Rectangle 26" d="M100 38H0V41H100V38Z" fill="#FF0000"/>
</g>
</g>
</g>
</g>
<defs>
<clipPath id="clip0_2_29">
<rect width="101" height="41" fill="white"/>
</clipPath>
</defs>
</svg>
