<svg width="23" height="23" viewBox="0 0 23 23" fill="none" xmlns="http://www.w3.org/2000/svg">
<g id="logo-katalog 1" clip-path="url(#clip0_74_830)">
<g id="logo-katalog">
<g id="Group 17">
<path id="Path 36" d="M8.55854 11.0544H2.49584C2.16786 11.0549 1.84301 10.9906 1.53992 10.8653C1.23682 10.74 0.961425 10.5561 0.729552 10.3241C0.497679 10.0922 0.313884 9.81673 0.18869 9.51359C0.0634954 9.21044 -0.000627201 8.88557 -9.01113e-07 8.55759V2.49584C-0.00808752 2.16588 0.0509432 1.83771 0.173509 1.53124C0.296074 1.22478 0.479615 0.946405 0.713006 0.713014C0.946398 0.479622 1.22477 0.296074 1.53124 0.173509C1.8377 0.0509432 2.16587 -0.00808752 2.49584 -9.01113e-07H8.647C8.97498 -0.000627201 9.29985 0.0634954 9.60299 0.18869C9.90614 0.313884 10.1816 0.497686 10.4136 0.729559C10.6455 0.961432 10.8294 1.23682 10.9547 1.53992C11.08 1.84301 11.1443 2.16786 11.1438 2.49584V8.647C11.0762 9.29278 10.7771 9.89228 10.3019 10.3348C9.82676 10.7773 9.2075 11.0329 8.55854 11.0544ZM2.49584 1.33543C2.21344 1.33912 1.94366 1.45295 1.74396 1.65265C1.54426 1.85235 1.43043 2.12214 1.42674 2.40453V8.55569C1.43043 8.83817 1.54421 9.10806 1.74389 9.30792C1.94356 9.50777 2.21336 9.6218 2.49584 9.62574H8.647C8.92965 9.62205 9.19968 9.50812 9.39956 9.30824C9.59943 9.10836 9.71336 8.83833 9.71705 8.55569V2.49584C9.71336 2.2132 9.59943 1.94317 9.39956 1.74329C9.19968 1.54341 8.92965 1.42948 8.647 1.42579H2.49584V1.33543Z" fill="white"/>
</g>
<g id="Group 18">
<path id="Path 37" d="M8.55854 23H2.49584C2.16794 23.0005 1.84317 22.9363 1.54014 22.811C1.2371 22.6858 0.961766 22.5019 0.729905 22.2701C0.498045 22.0382 0.314221 21.7629 0.188971 21.4599C0.0637205 21.1568 -0.000496449 20.832 4.54394e-06 20.5041V14.353C-0.000621756 14.025 0.0635009 13.7001 0.188695 13.397C0.31389 13.0938 0.497684 12.8184 0.729557 12.5864C0.96143 12.3545 1.23682 12.1706 1.53992 12.0453C1.84302 11.9199 2.16786 11.8557 2.49584 11.8562H8.647C8.97503 11.8557 9.29992 11.9199 9.60307 12.0452C9.90622 12.1705 10.1817 12.3544 10.4136 12.5864C10.6456 12.8183 10.8295 13.0938 10.9548 13.3969C11.0801 13.7001 11.1443 14.025 11.1438 14.353V20.5041C11.0948 21.1651 10.8041 21.7849 10.3273 22.2452C9.85042 22.7055 9.22082 22.9742 8.55854 23ZM2.49584 13.2829C2.21328 13.2866 1.94336 13.4006 1.74363 13.6005C1.54391 13.8004 1.43019 14.0704 1.42674 14.353V20.5041C1.43044 20.7865 1.54427 21.0563 1.74397 21.256C1.94367 21.4557 2.21345 21.5696 2.49584 21.5732H8.647C8.92949 21.5696 9.19937 21.4558 9.39923 21.2561C9.59908 21.0564 9.71312 20.7866 9.71706 20.5041V14.353C9.7136 14.0703 9.59975 13.8001 9.39982 13.6002C9.19989 13.4002 8.92973 13.2864 8.647 13.2829H2.49584Z" fill="white"/>
</g>
<g id="Group 19">
<path id="Path 38" d="M20.1475 11.0544H13.9963C13.6683 11.0549 13.3435 10.9906 13.0404 10.8653C12.7373 10.74 12.4619 10.5561 12.23 10.3242C11.9982 10.0922 11.8144 9.81674 11.6892 9.51359C11.564 9.21045 11.4999 8.88557 11.5005 8.55759V2.49585C11.5338 1.82927 11.8195 1.20034 12.2997 0.736785C12.7798 0.273231 13.4184 0.00980673 14.0857 4.54853e-06H20.2331C20.561 -0.00062212 20.8858 0.0635111 21.1889 0.188717C21.492 0.313923 21.7674 0.497737 21.9993 0.729622C22.2312 0.961508 22.415 1.2369 22.5402 1.53999C22.6654 1.84309 22.7296 2.16791 22.7289 2.49585V8.647C22.6759 9.29775 22.3818 9.90525 21.9043 10.3505C21.4269 10.7958 20.8003 11.0468 20.1475 11.0544ZM14.0857 1.33543C13.8032 1.33912 13.5334 1.45291 13.3335 1.65259C13.1337 1.85227 13.0196 2.12206 13.0157 2.40454V8.55569C13.0194 8.83834 13.1333 9.10837 13.3332 9.30825C13.5331 9.50813 13.8031 9.62205 14.0857 9.62575H20.2331C20.5156 9.62205 20.7856 9.50809 20.9853 9.30818C21.185 9.10828 21.2987 8.83825 21.3022 8.55569V2.49585C21.2985 2.21336 21.1847 1.94347 20.985 1.74362C20.7854 1.54377 20.5156 1.42973 20.2331 1.42579H14.0819L14.0857 1.33543Z" fill="white"/>
</g>
<g id="Group 20">
<path id="Path 39" d="M17.1161 23.0001C16.0229 23.0001 14.9543 22.6759 14.0454 22.0686C13.1364 21.4612 12.428 20.598 12.0097 19.588C11.5913 18.5781 11.4819 17.4667 11.6951 16.3946C11.9084 15.3224 12.4348 14.3376 13.2078 13.5646C13.9808 12.7916 14.9657 12.2652 16.0378 12.0519C17.11 11.8386 18.2213 11.9481 19.2313 12.3664C20.2412 12.7848 21.1045 13.4932 21.7118 14.4021C22.3191 15.3111 22.6433 16.3797 22.6433 17.4729C22.6361 18.9365 22.0514 20.3382 21.0164 21.3732C19.9814 22.4082 18.5798 22.9928 17.1161 23.0001ZM17.1161 13.283C16.2884 13.283 15.4792 13.5285 14.791 13.9883C14.1028 14.4482 13.5664 15.1018 13.2496 15.8665C12.9328 16.6313 12.8499 17.4728 13.0114 18.2846C13.1729 19.0964 13.5715 19.8421 14.1568 20.4274C14.7421 21.0127 15.4878 21.4113 16.2996 21.5728C17.1115 21.7343 17.953 21.6514 18.7177 21.3346C19.4824 21.0179 20.136 20.4815 20.5959 19.7932C21.0558 19.105 21.3012 18.2959 21.3012 17.4681C21.3012 16.3582 20.8603 15.2937 20.0754 14.5088C19.2906 13.7239 18.2261 13.283 17.1161 13.283Z" fill="white"/>
</g>
</g>
</g>
<defs>
<clipPath id="clip0_74_830">
<rect width="22.7327" height="23" fill="white"/>
</clipPath>
</defs>
</svg>
